<svg id="Calque_1" data-name="Calque 1" xmlns="http://www.w3.org/2000/svg" xmlns:xlink="http://www.w3.org/1999/xlink" viewBox="0 0 75.76 60.95"><defs><style>.cls-1{fill:#ff7384;}.cls-2{fill:#5daa0c;}.cls-3{fill:#158b9b;}.cls-4{fill:url(#Dégradé_sans_nom);}.cls-5{fill:url(#Dégradé_sans_nom_2);}.cls-6{fill:url(#Dégradé_sans_nom_3);}.cls-7{fill:#5ce9f1;}</style><linearGradient id="Dégradé_sans_nom" x1="12.94" y1="31.96" x2="85.72" y2="31.96" gradientTransform="matrix(1, 0, 0, -1, 0.15, 62.23)" gradientUnits="userSpaceOnUse"><stop offset="0" stop-color="#ff7384"/><stop offset="1" stop-color="#5ce9f1"/></linearGradient><linearGradient id="Dégradé_sans_nom_2" x1="14.4" y1="33.59" x2="84.26" y2="33.59" gradientTransform="matrix(1, 0, 0, -1, 0.15, 62.23)" gradientUnits="userSpaceOnUse"><stop offset="0" stop-color="#ff7384"/><stop offset="0.15" stop-color="#d7909e"/><stop offset="0.34" stop-color="#abafbc"/><stop offset="0.53" stop-color="#89c8d3"/><stop offset="0.71" stop-color="#70dae4"/><stop offset="0.87" stop-color="#61e5ee"/><stop offset="1" stop-color="#5ce9f1"/></linearGradient><linearGradient id="Dégradé_sans_nom_3" x1="18.86" y1="31.97" x2="79.8" y2="31.97" gradientTransform="matrix(1, 0, 0, -1, 0.15, 62.23)" gradientUnits="userSpaceOnUse"><stop offset="0" stop-color="#ff7384"/><stop offset="0.01" stop-color="#f77989"/><stop offset="0.06" stop-color="#d393a1"/><stop offset="0.12" stop-color="#b3aab7"/><stop offset="0.18" stop-color="#97bec9"/><stop offset="0.26" stop-color="#81ced8"/><stop offset="0.34" stop-color="#70dae3"/><stop offset="0.45" stop-color="#65e3eb"/><stop offset="0.59" stop-color="#5ee8f0"/><stop offset="1" stop-color="#5ce9f1"/></linearGradient></defs><title>score-progress</title><path id="one" class="cls-1" d="M45,3A29.75,29.75,0,0,1,64.62,8.23c6.26,4.45,9.26,9,9.57,17.07,0,2.21,1,15.82-7.23,23.61-6.24,5.32-17.52,7.64-27.68,3C31,48.06,25.88,37.74,24.88,30.09,23.56,18.76,31.16,5.14,45,3Z" transform="translate(-11.6 0.01)"/><path id="two" class="cls-1" d="M44.82,5.88S55,4.14,63.59,10.33c6.29,4.51,8,7.94,7.84,16.1C71.29,29,70.66,40.58,61.51,48c-6.21,5.32-16.77,4.27-22.81.56-7.11-4.36-10.17-11.63-11.14-19.3C26.82,18.83,35.67,7,44.82,5.88Z" transform="translate(-11.6 0.01)"/><path id="three" class="cls-2" d="M43.81,10.32a181,181,0,0,0,29.28,8.12C83.48,19.78,86.64,29.67,83.37,35.1c-1.09,1.54-4.23,6.5-17.12,6.26-16.46-.18-17.69,3.17-25.12,5C26.48,50,18,43.55,15,33.76,11.14,21,24.94,3.28,43.81,10.32Z" transform="translate(-11.6 0.01)"/><path id="four" class="cls-3" d="M38.75,18.28s12.58,8.64,30.32,2.58S90,31.86,85.61,36.6c-1.27,1.33-6.45,7.63-23.2,3.41s-19.34-.78-26.66,1.54-18.34,4.8-23.16-7.32C7.45,21.48,23.2,7.4,38.75,18.28Z" transform="translate(-11.6 0.01)"/><path id="five" class="cls-4" d="M32,19.62a55.47,55.47,0,0,0,25.15-5.39c7.13-3.09,24.21-3.28,28.4,13.61,1.73,6.58-2.59,20.09-23.33,20.09-7.72.14-13.57-3.7-21.72-5.38-8-1.48-25,3-27.18-10.27C12.1,23.85,15.85,18.48,32,19.62Z" transform="translate(-11.6 0.01)"/><path id="six" class="cls-5" d="M36.7,11.6S50.37,3.23,55.25,2.39c12-2.75,24.92,8.84,28.37,24.49,1.72,6.57,1.9,17-13.1,25.41-4.45,2.86-21,6.62-37.72-4.36-13.34-7.38-17.74-11-18.24-15.63C14.14,23.71,23.93,19.63,36.7,11.6Z" transform="translate(-11.6 0.01)"/><path id="seven" class="cls-6" d="M30.76,11.45C36.15,7.09,40.93,3.29,49.24.8,64.09-3.57,76,12.55,78.9,25,81.13,36,81,42.22,66.34,55c-2.67,1.62-11.24,10.87-32.73,1-11.26-6.42-14.1-14.74-14.56-19.34C18.63,28.06,21.41,20,30.76,11.45Z" transform="translate(-11.6 0.01)"/><path id="eight" class="cls-7" d="M30.81,11.28C36.24,6.92,41,3.12,49.33.63c14.85-4.4,31.68,14.8,29,32.54-.43,7.74-9.81,18.69-12.43,21.29-3,2.85-12.71,12.21-32.21,1.41C22.15,48,20.88,39.79,20.39,35.55,20.26,30.11,19.7,19.65,30.81,11.28Z" transform="translate(-11.6 0.01)"/><path id="nine" class="cls-7" d="M45,3A29.75,29.75,0,0,1,64.62,8.23c6.29,4.5,9.29,9,9.57,17.12,0,2.21,1,15.82-7.23,23.61-6.21,5.27-17.47,7.63-27.68,2.95C31,48.06,25.83,37.74,24.87,30.09,23.56,18.76,31.16,5.14,45,3Z" transform="translate(-11.6 0.01)"/></svg>

