<svg id="Calque_1" data-name="Calque 1" xmlns="http://www.w3.org/2000/svg" xmlns:xlink="http://www.w3.org/1999/xlink" viewBox="0 0 98.96 60.94"><defs><style>.cls-1{fill:#ff7384;}.cls-2{fill:#5daa0c;}.cls-3{fill:#158b9b;}.cls-4{fill:url(#Dégradé_sans_nom_15);}.cls-5{fill:url(#Dégradé_sans_nom_16);}.cls-6{fill:url(#Dégradé_sans_nom_17);}.cls-7{fill:#5ce9f1;}</style><linearGradient id="Dégradé_sans_nom_15" x1="15.62" y1="30.08" x2="88.4" y2="30.08" gradientUnits="userSpaceOnUse"><stop offset="0" stop-color="#ff7384"/><stop offset="1" stop-color="#5ce9f1"/></linearGradient><linearGradient id="Dégradé_sans_nom_16" x1="21.77" y1="28.41" x2="91.63" y2="28.41" gradientUnits="userSpaceOnUse"><stop offset="0" stop-color="#ff7384"/><stop offset="0.15" stop-color="#d7909e"/><stop offset="0.34" stop-color="#abafbc"/><stop offset="0.53" stop-color="#89c8d3"/><stop offset="0.71" stop-color="#70dae4"/><stop offset="0.87" stop-color="#61e5ee"/><stop offset="1" stop-color="#5ce9f1"/></linearGradient><linearGradient id="Dégradé_sans_nom_17" x1="37.5" y1="30.03" x2="98.44" y2="30.03" gradientUnits="userSpaceOnUse"><stop offset="0" stop-color="#ff7384"/><stop offset="0.01" stop-color="#f77989"/><stop offset="0.06" stop-color="#d393a1"/><stop offset="0.12" stop-color="#b3aab7"/><stop offset="0.18" stop-color="#97bec9"/><stop offset="0.26" stop-color="#81ced8"/><stop offset="0.34" stop-color="#70dae3"/><stop offset="0.45" stop-color="#65e3eb"/><stop offset="0.59" stop-color="#5ee8f0"/><stop offset="1" stop-color="#5ce9f1"/></linearGradient></defs><path id="one" class="cls-1" d="M20.15,2.72A29.8,29.8,0,0,1,39.74,8C46,12.45,49,17,49.31,25.07c0,2.21,1,15.82-7.23,23.61-6.24,5.32-17.52,7.64-27.68,3C6.07,47.83,1,37.51,0,29.86-1.32,18.53,6.28,4.91,20.15,2.72Z" transform="translate(0.15 0.23)"/><path id="two" class="cls-1" d="M22.63,5.65S32.77,3.91,41.4,10.1c6.29,4.51,8,7.94,7.84,16.1-.14,2.53-.77,14.15-9.92,21.54-6.21,5.32-16.77,4.27-22.81.56C9.4,43.94,6.34,36.67,5.37,29,4.63,18.6,13.48,6.77,22.63,5.65Z" transform="translate(0.15 0.23)"/><path id="three" class="cls-2" d="M34.17,10.09a181,181,0,0,0,29.28,8.12C73.84,19.55,77,29.44,73.73,34.87c-1.09,1.54-4.23,6.5-17.12,6.26-16.46-.18-17.69,3.17-25.12,5C16.84,49.78,8.33,43.32,5.38,33.53,1.5,20.79,15.3,3.05,34.17,10.09Z" transform="translate(0.15 0.23)"/><path id="four" class="cls-3" d="M38,18.05s12.58,8.64,30.32,2.58,20.9,11,16.54,15.74C83.59,37.7,78.41,44,61.66,39.78S42.32,39,35,41.32,16.66,46.12,11.84,34C6.7,21.25,22.45,7.17,38,18.05Z" transform="translate(0.15 0.23)"/><path id="five" class="cls-4" d="M34.5,19.39A55.46,55.46,0,0,0,59.65,14c7.13-3.09,24.21-3.28,28.4,13.61,1.73,6.58-2.59,20.09-23.33,20.09C57,47.84,51.15,44,43,42.32c-8-1.48-25,3-27.18-10.27C14.63,23.62,18.38,18.25,34.5,19.39Z" transform="translate(0.15 0.23)"/><path id="six" class="cls-5" d="M43.92,11.37S57.59,3,62.47,2.16C74.47-.59,87.39,11,90.84,26.65c1.72,6.57,1.9,17-13.1,25.41-4.45,2.86-21,6.62-37.72-4.36-13.34-7.38-17.74-11-18.24-15.63C21.36,23.48,31.15,19.4,43.92,11.37Z" transform="translate(0.15 0.23)"/><path id="seven" class="cls-6" d="M49.25,11.22C54.64,6.86,59.42,3.06,67.73.57,82.58-3.8,94.48,12.32,97.39,24.74c2.23,11,2.09,17.25-12.56,30-2.67,1.62-11.24,10.87-32.73,1C40.84,49.32,38,41,37.54,36.4,37.12,27.83,39.9,19.81,49.25,11.22Z" transform="translate(0.15 0.23)"/><path id="eight" class="cls-7" d="M51,11.05C56.43,6.69,61.21,2.89,69.52.4,84.37-4,101.2,15.2,98.52,32.94c-.43,7.74-9.81,18.69-12.43,21.29-3,2.85-12.71,12.21-32.21,1.41-11.54-7.92-12.81-16.08-13.3-20.32C40.45,29.88,39.89,19.42,51,11.05Z" transform="translate(0.15 0.23)"/><path id="nine" class="cls-7" d="M69.54,2.72A29.8,29.8,0,0,1,89.13,8c6.29,4.5,9.29,9,9.57,17.12,0,2.21,1,15.82-7.23,23.61C85.26,54,74,56.36,63.79,51.68c-8.33-3.85-13.45-14.17-14.41-21.82C48.07,18.53,55.67,4.91,69.54,2.72Z" transform="translate(0.15 0.23)"/></svg>