<svg xmlns="http://www.w3.org/2000/svg" xmlns:xlink="http://www.w3.org/1999/xlink" width="410" height="324" viewBox="0 0 410 324">
  <defs>
    <clipPath id="clip-path">
      <rect id="Rectangle_256" data-name="Rectangle 256" width="410" height="324" transform="translate(-1088 1720)" fill="none" stroke="#707070" stroke-width="1"/>
    </clipPath>
    <clipPath id="clip-path-2">
      <path id="Tracé_317" data-name="Tracé 317" d="M5364.144,6842.622c10.5-11.969,16.383-26.812,29.107-36.377,16.255-12.217,34.855-33.623,53.624-25.8,19.758,8.233,11.11,40.664,23.655,58.008,10.748,14.861,35.029,16.247,42.249,33.109,8.109,18.942,8.716,42.829-2.271,60.264-10.951,17.375-33.855,21.133-53.264,27.854-18.111,6.271-36.26,12.354-55.246,9.716-20.41-2.84-40.552-10.206-54.868-25.027-14.825-15.35-28.226-36.31-24.707-57.356,3.434-20.529,28-28.738,41.72-44.388" transform="translate(-5321.856 -6778.767)" fill="none"/>
    </clipPath>
    <clipPath id="clip-path-3">
      <path id="Tracé_315" data-name="Tracé 315" d="M6851.621,7358.639c18.116-2.738,30.467,18.443,43.575,31.243,11.168,10.908,20.183,22.937,26.51,37.206,7.041,15.876,18.836,33.49,11.9,49.412-6.958,15.976-28.021,19.114-44.373,25.134-12.168,4.48-24.913,2.432-37.614,5.05-17.583,3.621-33.955,19.222-50.856,13.174-17.3-6.193-26.289-25.611-32.372-42.954-6.188-17.648-11.976-38.96-1.869-54.693,10-15.569,35.316-9.388,50.143-20.461,15.194-11.353,16.2-40.278,34.956-43.11" transform="translate(-6761.031 -7358.397)" fill="none"/>
    </clipPath>
  </defs>
  <g id="Groupe_de_masques_17" data-name="Groupe de masques 17" transform="translate(1088 -1720)" clip-path="url(#clip-path)">
    <path id="Tracé_319" data-name="Tracé 319" d="M6209.468,5721.232c-19.007,2.6-40.509-2.839-53.536-16.922-12.5-13.511-8.552-34.494-10.9-52.747-1.849-14.347-4.864-28.283-1.342-42.313,3.729-14.854,10.329-29.009,21.795-39.163,12.266-10.857,27.619-18.38,43.984-19.067,16.788-.7,31.811,7.565,46.743,15.266,17.775,9.167,42.023,14.471,47.948,33.571,5.931,19.118-10.759,37.392-20.514,54.869-7.87,14.1-18.314,25.459-30.337,36.241-13.553,12.152-25.8,27.793-43.84,30.265" transform="translate(-7169.08 -3788.979)" fill="#fe6a7a"/>
    <path id="Tracé_2275" data-name="Tracé 2275" d="M6291.779,6012.805c-8.442-3.651-13.756-5.8-22.814-3.842a34.6,34.6,0,0,0-7.848,2.717c-5.9,2.841-11.282,7.447-16.235,11.71-8.7,7.5-12.667,17.756-14.211,29.025-1.35,9.883-1.465,24.488,5.423,32.612,5.979,7.047,15.655,11.012,24.717,10.993,23.114-.041,47.882-18.676,56.312-39.986a47.625,47.625,0,0,0,3.044-15.982c.025-5.265-2.3-8.119-5.837-11.574-3.711-3.633-6.649-7.93-11.42-10.375-3.456-1.769-7.41-2.585-11.024-3.991C6288.517,6012.8,6284.563,6010.241,6291.779,6012.805Z" transform="matrix(-0.208, -0.978, 0.978, -0.208, -5561.626, 9231.786)" fill="#5fe7ef"/>
    <path id="Tracé_320" data-name="Tracé 320" d="M6546.916,6617.352c55.893-13.488,31.84,118,71.07,160.767,46.383,50.563,162.532,27.542,168.65,100.555,6,71.559-106.755,84.52-148.265,142.8-34.4,48.3-25.757,122.653-68.684,161.851-49.268,44.994,38.205-109.661,0-161.851-52.32-71.485-103.9,19.96-156.19-51.55-50.6-69.2-186.984,42.481-239.843-24.611-38.965-49.454,20.5-154.586,77.718-181.164,64.2-29.825,127.343,87.952,190.921,56.373,65.884-32.732,34.624-186.286,104.622-203.174" transform="translate(4616.467 9361.924) rotate(-173)" fill="#fcc5dd"/>
    <g id="Groupe_398" data-name="Groupe 398" transform="matrix(-0.951, -0.309, 0.309, -0.951, -628.89, 2016.936)">
      <g id="Groupe_104" data-name="Groupe 104" clip-path="url(#clip-path-2)">
        <path id="Tracé_317-2" data-name="Tracé 317" d="M5216.939,6507.723c16.733-19.079,26.117-42.743,46.4-57.992,25.913-19.474,55.566-53.6,85.487-41.133,31.5,13.126,17.712,64.825,37.712,92.476,17.135,23.692,55.845,25.9,67.354,52.785,12.928,30.2,13.895,68.28-3.62,96.073-17.458,27.7-53.973,33.691-84.916,44.4-28.874,10-57.806,19.7-88.072,15.488-32.538-4.524-64.649-16.27-87.474-39.9-23.634-24.47-45-57.886-39.386-91.44,5.473-32.729,44.632-45.814,66.51-70.764" transform="translate(-5183.256 -6478.902)" fill="#fe6a7a"/>
        <g id="Groupe_103" data-name="Groupe 103" transform="translate(-73.388 -40.42)" opacity="0.13">
          <path id="Tracé_590" data-name="Tracé 590" d="M5368.244,7336.569a9.571,9.571,0,0,0-1.449,2.55c-.25.849-.5,1.7-.752,2.548a15.659,15.659,0,0,0-.559,5.667,8.578,8.578,0,0,0,1.537,4.407,8.468,8.468,0,0,0,3.152,2.65,13.686,13.686,0,0,0,4.442,1.424,9.5,9.5,0,0,0,3.989-.393,10.476,10.476,0,0,0,3.732-1.988,17.861,17.861,0,0,0,3.368-4.169,17.133,17.133,0,0,0,1.155-1.985,12.123,12.123,0,0,0,.827-2.506,11.262,11.262,0,0,0-6.453-12.787,8.35,8.35,0,0,0-6.594.079c-.6.254-1.119.646-1.705.927-.508.248-.993.544-1.474.842a13.646,13.646,0,0,0-2.032,1.227A7.647,7.647,0,0,0,5368.244,7336.569Z" transform="translate(-5283.513 -7182.77)"/>
          <path id="Tracé_591" data-name="Tracé 591" d="M5420.919,7145.935a20.708,20.708,0,0,0-1.478,2.069,19.534,19.534,0,0,0-1.085,2.238c-.4.956-.8,1.9-1.237,2.837-.541,1.15-.962,2.349-1.515,3.5a7.423,7.423,0,0,0-.872,2.447,6.655,6.655,0,0,0,.3,2.071,8.223,8.223,0,0,0,1.61,3.671,10.087,10.087,0,0,0,1.69,1.361,12.338,12.338,0,0,0,2.375,1.375c.927.387,1.9.641,2.835,1.024a13.816,13.816,0,0,0,2.161.706c1.7.4,3.222,1.2,5.024,1.153a4.252,4.252,0,0,0,1.792-.318,14.859,14.859,0,0,0,2.359-1.409,12.439,12.439,0,0,0,1.7-1.474c.872-.894,1.756-1.775,2.6-2.7a37.1,37.1,0,0,0,4.376-5.837,32.151,32.151,0,0,0,2.819-5.529,15.188,15.188,0,0,0,.832-5.853,8.014,8.014,0,0,0-1.472-4.8,23.054,23.054,0,0,0-3.38-3.171c-.6-.489-1.23-.956-1.871-1.395a11.7,11.7,0,0,0-2.158-1.257,9.137,9.137,0,0,0-7.842.618,13.321,13.321,0,0,0-1.891,1.26c-.682.563-1.337,1.156-2.027,1.707a29.473,29.473,0,0,0-2.827,2.481c-.427.438-.874.86-1.316,1.282-.328.315-.574.688-.887,1.019a6.738,6.738,0,0,0-.462.53C5420.866,7145.8,5420.837,7146.134,5420.919,7145.935Z" transform="translate(-5323.157 -7025.685)"/>
          <path id="Tracé_592" data-name="Tracé 592" d="M5488.042,7283.625c-.192,1.147-.3,2.295-.534,3.434a22.321,22.321,0,0,0-.389,2.872c-.08,1.14-.209,2.262-.388,3.392-.131.826-.358,1.627-.458,2.458q-.325,2.73-.548,5.474a29.991,29.991,0,0,0,0,3.58,19.258,19.258,0,0,0,.531,4.373,10.807,10.807,0,0,0,3.444,5.5,4.307,4.307,0,0,0,2.122.981,10.312,10.312,0,0,0,3.063-.123,20.021,20.021,0,0,0,2.781-.662,34.051,34.051,0,0,0,3.145-1.31,17.11,17.11,0,0,0,3.158-1.84,31.072,31.072,0,0,0,3.462-2.6,30.015,30.015,0,0,0,4.364-5c.638-.963,1.214-1.951,1.873-2.9.8-1.146,1.557-2.326,2.253-3.538.654-1.14,1.216-2.342,1.828-3.506a30.493,30.493,0,0,0,1.477-3.185,21.784,21.784,0,0,0,1.164-4.139,23.349,23.349,0,0,0,.426-5.823,14.632,14.632,0,0,0-.909-4.225,12.694,12.694,0,0,0-1.462-2.593,10.49,10.49,0,0,0-1.756-2.024,11.159,11.159,0,0,0-3.042-1.812,16.224,16.224,0,0,0-2.572-.744,8.574,8.574,0,0,0-2.923-.212,9.89,9.89,0,0,0-2.831.946,23.452,23.452,0,0,0-3.6,2.189c-1.789,1.274-3.6,2.521-5.367,3.827-1.567,1.16-3.3,2.053-4.813,3.3a17.5,17.5,0,0,0-2.739,2.678A3.82,3.82,0,0,0,5488.042,7283.625Z" transform="translate(-5380.219 -7132.952)"/>
          <path id="Tracé_593" data-name="Tracé 593" d="M5611,7053.887c-.915.375-3.361.922-3.821,1.971a10.137,10.137,0,0,0-.334,1.16c-.239.811-.594,1.583-.862,2.385-1.035,3.1-.546,6.205-.16,9.332a24.14,24.14,0,0,0,1.163,5.955,28.584,28.584,0,0,0,3.112,6.195,25.291,25.291,0,0,0,4.018,4.332,29.943,29.943,0,0,0,5.347,3.264,9.9,9.9,0,0,0,2.769,1.195,18.99,18.99,0,0,0,3.436.27,18.625,18.625,0,0,0,7.47-.866,29.22,29.22,0,0,0,4.78-2.2,16.442,16.442,0,0,0,5.448-5.961A25.836,25.836,0,0,0,5646.2,7074a27.992,27.992,0,0,0,.522-9.1,17.37,17.37,0,0,0-1.918-7.276,25.3,25.3,0,0,0-4.584-5.89,18.576,18.576,0,0,0-4.266-2.637,17.823,17.823,0,0,0-5.339-1.479,17.075,17.075,0,0,0-3.57-.372,21.287,21.287,0,0,0-3.544.474,22.078,22.078,0,0,0-5.927,1.751c-1.343.7-2.6,1.5-3.965,2.152-.8.378-1.565.791-2.33,1.229C5610.654,7053.213,5610.04,7053.613,5611,7053.887Z" transform="translate(-5476.481 -6954.272)"/>
          <path id="Tracé_594" data-name="Tracé 594" d="M5455.936,6920.327a28.654,28.654,0,0,0-3.46,1.39,5.936,5.936,0,0,0-1.693,1.484c-.864.958-1.714,1.925-2.528,2.931a29.273,29.273,0,0,0-4.791,14.049,11.7,11.7,0,0,0,1.813,6.06,14.05,14.05,0,0,0,7.581,6.125,10.415,10.415,0,0,0,2.885.3c.576.011,1.148.1,1.725.076a17.748,17.748,0,0,0,5.2-1.362,38.9,38.9,0,0,0,5.767-2.92,36.429,36.429,0,0,0,5.378-3.848,27.123,27.123,0,0,0,4.92-5.161,30.762,30.762,0,0,0,4.277-8.784c1.273-4.43,1.813-9.809-1.17-13.557a8.493,8.493,0,0,0-3.2-2.369,14.206,14.206,0,0,0-5.239-1.458,14.529,14.529,0,0,0-2.73.208c-.9.129-1.831.172-2.722.369a29.417,29.417,0,0,0-5.193,1.945,15.975,15.975,0,0,0-2.51,1.3c-.883.584-1.655,1.319-2.538,1.9C5456.241,6919.987,5454.577,6920.568,5455.936,6920.327Z" transform="translate(-5346.273 -6846.529)"/>
          <path id="Tracé_595" data-name="Tracé 595" d="M5272.479,7228.5c-1.291.919-3.675,2.1-4.334,3.823a13.275,13.275,0,0,1-.968,1.939,11.051,11.051,0,0,0-1.011,1.992,13.083,13.083,0,0,0-.456,3.162c-.131,1.812-.177,3.936.7,5.563a9.871,9.871,0,0,0,2.59,2.976,11.141,11.141,0,0,0,8.213,1.833c3.746-.617,6.575-4.383,8.428-7.441a55.533,55.533,0,0,0,3.512-6.315,21.979,21.979,0,0,0,1.449-5.9,8.737,8.737,0,0,0-.5-5.095,5.486,5.486,0,0,0-3.441-2.6,14.139,14.139,0,0,0-4.829-.2,11.29,11.29,0,0,0-5.4,1.616C5273.413,7225.826,5270.512,7228.56,5272.479,7228.5Z" transform="translate(-5203.253 -7094.93)"/>
          <path id="Tracé_596" data-name="Tracé 596" d="M5278.637,7014.185a29.77,29.77,0,0,0-3.5,4.664q-.335,1.072-.565,2.169c-.425,1.855-.763,3.729-1.192,5.581-.646,2.77-1.341,5.56-1.053,8.414.47,4.632,5.2,7.777,9.293,8.959,1.463.423,2.956.7,4.43,1.078a24.044,24.044,0,0,0,3.331.727,7.292,7.292,0,0,0,2.876-.143,20.937,20.937,0,0,0,2.382-1.051c1.9-.828,3.947-1.347,5.465-2.893a11.073,11.073,0,0,0,2.734-6.1,32.023,32.023,0,0,0,.463-6.762,49.137,49.137,0,0,0-.743-8.118c-.809-3.93-2.525-7.69-5.942-9.9a11.958,11.958,0,0,0-6.263-1.953,13.938,13.938,0,0,0-3.631.636,9.254,9.254,0,0,0-3.523,1.752,19.14,19.14,0,0,0-1.858,2.069C5280.477,7014.306,5279.458,7015.164,5278.637,7014.185Z" transform="translate(-5208.582 -6923.394)"/>
          <path id="Tracé_597" data-name="Tracé 597" d="M5177.724,7374.6q-2.262,2.765-4.24,5.735a6.126,6.126,0,0,0-.388,1.69,16.742,16.742,0,0,0-.088,3.816,14.186,14.186,0,0,0,2.144,6.158,24.838,24.838,0,0,0,6.142,6.3,37.709,37.709,0,0,0,6.508,3.992c4.481,2.154,10.312,3.336,14.582-.18a16.037,16.037,0,0,0,4.556-7.007,20.728,20.728,0,0,0,1.1-8.625c-.469-5.535-3.445-10.768-7.206-14.6a26.918,26.918,0,0,0-5.487-4.539,26.3,26.3,0,0,0-5.1-2.484,8.173,8.173,0,0,0-5.408.324,10.651,10.651,0,0,0-4.5,3.9c-1.187,1.606-2.388,3.19-3.557,4.806C5175.838,7375.179,5174.593,7376.215,5177.724,7374.6Z" transform="translate(-5128.698 -7209.452)"/>
          <path id="Tracé_598" data-name="Tracé 598" d="M5368.219,7497.726a28.3,28.3,0,0,0-3.481,4,25.832,25.832,0,0,0-1.731,3.235,16.334,16.334,0,0,0-1,7.69,17.67,17.67,0,0,0,6.024,12.141,32.137,32.137,0,0,0,5.383,3.32,20.958,20.958,0,0,0,6.966,2.619,19.828,19.828,0,0,0,7.113-.278,11.007,11.007,0,0,0,5.68-4.029c3.127-3.964,3.038-9.286,1.378-13.783a20.432,20.432,0,0,0-3.789-6.327,29.913,29.913,0,0,0-6.542-5.969,38.814,38.814,0,0,0-10-4.091,6.36,6.36,0,0,0-4.014.195C5368.92,7496.945,5367.433,7497.668,5368.219,7497.726Z" transform="translate(-5280.69 -7315.208)"/>
          <path id="Tracé_599" data-name="Tracé 599" d="M5593.5,7492.589a38.924,38.924,0,0,0-7.373,3.871,15.56,15.56,0,0,0-4.3,5.647c-1.164,2.5-1.1,5.263-.955,7.922.079,1.456.073,2.883.228,4.34.149,1.4.21,3.259.934,4.514s2.526,1.72,3.6,2.6a17.654,17.654,0,0,0,6.911,3.917c2.1.538,4.5,1.392,6.718,1.105a12.136,12.136,0,0,0,2.683-.818,15.584,15.584,0,0,0,3.461-1.6c2.231-1.548,3.919-4.258,5.175-6.612a23.246,23.246,0,0,0,2.248-6.118,19.035,19.035,0,0,0,.687-5.584,10.1,10.1,0,0,0-1.952-5.132,22.753,22.753,0,0,0-5.28-4.591,20.41,20.41,0,0,0-5.6-2.89C5597.126,7492.1,5593.276,7492.334,5593.5,7492.589Z" transform="translate(-5456.724 -7312.278)"/>
          <path id="Tracé_600" data-name="Tracé 600" d="M5702.091,7299.667c-3.847,3.084-9.137,6.29-11.85,10.739a10.477,10.477,0,0,0-1.175,5.782c.065,4.074.012,8.183.452,12.236.3,2.809,2.266,4.871,4.637,6.2a43.631,43.631,0,0,1,3.98,2.072c1.533,1.074,3.256,1.952,4.735,3.071,1.391,1.053,2.319,2.593,3.693,3.636,1.055.8,3.01,1.955,4.294,1.215,1.231-.708,2.146-2.3,2.947-3.426a48.655,48.655,0,0,0,4.088-6.331,100.237,100.237,0,0,0,6.534-15.2,19.842,19.842,0,0,0,.708-6.448c-.04-2.136.032-4.119-.91-6.067-2.236-4.628-6.45-5.355-11.086-5.78-1.946-.177-3.927-.637-5.878-.666C5705.229,7300.674,5702.271,7301.128,5702.091,7299.667Z" transform="translate(-5543.801 -7157.291)"/>
          <path id="Tracé_601" data-name="Tracé 601" d="M5682.732,6788.035c-1.121.853-5.4,3.551-6.751,5.445-.572.8-.953,1.827-1.475,2.677a12.719,12.719,0,0,0-2.1,5.844c-.306,3.957-.347,8.053,1.147,11.747,1.223,3.02,3.03,6.073,5.871,7.691a14.194,14.194,0,0,0,6.156,2.042,11.145,11.145,0,0,0,6.818-1.983,21.744,21.744,0,0,0,9.567-10.833,26.5,26.5,0,0,0,.019-20.133c-1.976-4.6-6.435-6.1-11.175-5.586a24.008,24.008,0,0,0-5.991,1.365,15.619,15.619,0,0,0-3.295,1.431C5680.9,6788.159,5680.437,6788.792,5682.732,6788.035Z" transform="translate(-5530.267 -6743.238)"/>
          <path id="Tracé_602" data-name="Tracé 602" d="M5513.16,6675.533c-3.293,1.979-5.583,3.1-7.584,6.229-.517.807-1.11,1.557-1.626,2.362a19.667,19.667,0,0,0-2.775,8.948c-.191,2.126-.272,4.472.8,6.371.7,1.24,1.476,2.472,2.292,3.636,2.148,3.064,4.986,4.156,8.664,4.434a12.584,12.584,0,0,0,9.719-4.078,50.108,50.108,0,0,0,7.673-12.626c2.095-4.75,3.606-10.705,2.026-15.755-.531-1.7-1.638-3.771-3.264-4.632-1.737-.918-4.013-.13-5.834.213-2.514.472-4.7.8-6.922,2.235a33.426,33.426,0,0,0-4.976,4.63C5510.716,6678.135,5509.748,6678.822,5513.16,6675.533Z" transform="translate(-5392.595 -6650.863)"/>
          <path id="Tracé_603" data-name="Tracé 603" d="M5685.025,6578.438a19.983,19.983,0,0,0-3.284,7.637l.362.983c.438,1.544.5,3.224.808,4.806a26.628,26.628,0,0,0,2.056,7.246,11.225,11.225,0,0,0,4.419,5.03,19.981,19.981,0,0,0,3.8,1.616c1.822.586,3.44,1.3,5.4.868a11.652,11.652,0,0,0,4.142-1.762c1.622-1.148,2.6-2.936,3.658-4.564.958-1.473,2.127-2.775,2.944-4.344a16.392,16.392,0,0,0,1.256-11.892c-1.007-3.274-2.353-6.3-5.236-8.19a21.954,21.954,0,0,0-7.843-3.3c-2.38-.459-4.079-.526-6.322.619C5687.3,6575.173,5684.782,6578.085,5685.025,6578.438Z" transform="translate(-5537.913 -6572.26)"/>
          <path id="Tracé_604" data-name="Tracé 604" d="M5515.529,7683.361a53.849,53.849,0,0,0-6.909,8.136q-.289,1-.517,2.019a23.628,23.628,0,0,0-.81,4.726c-.174,3.419.06,7.615,1.532,10.7,2.516,5.273,8.575,9.093,13.5,11.626a19.012,19.012,0,0,0,9.071,2.46c3.628-.041,7.912-.846,10.679-3.439,3.907-3.662,7.856-8.87,8.067-14.43a19.671,19.671,0,0,0-1.105-6.394c-.529-1.8-1.774-3.04-2.764-4.564-2.56-3.936-6.538-6.5-10.714-8.381-1.55-.7-2.814-1.761-4.339-2.469a21.9,21.9,0,0,0-5.548-1.878C5521.708,7680.815,5516.768,7682.166,5515.529,7683.361Z" transform="translate(-5397.57 -7464.227)"/>
          <path id="Tracé_605" data-name="Tracé 605" d="M5757.088,7550.348a46.305,46.305,0,0,0-4.625,6.992,17.438,17.438,0,0,1-.364,2.621,39.733,39.733,0,0,1-1.607,5.484c-1.284,3.594-3.177,6.852-4.021,10.6-1.918,8.51,3.03,16.982,10.448,20.559,4.064,1.957,9.434.079,12.306-3.345,5.048-6.015,8.081-13.364,10.013-20.888.7-2.712,1.5-5.494,2.015-8.244.422-2.248.977-4.632,1.2-6.894.512-5.129-.724-10.361-5.1-13.252-3.939-2.6-8.256-1.728-12.441-.057C5759.618,7546.041,5751.695,7550.331,5757.088,7550.348Z" transform="translate(-5589.64 -7352.461)"/>
          <path id="Tracé_606" data-name="Tracé 606" d="M5912.941,7314.833a88.123,88.123,0,0,0-5.46,7.263c-.833,1.328-.8,1.077-.933,2.185a17.2,17.2,0,0,1-.754,3c-.753,2.477-1.837,4.973-2.359,7.5-.487,2.355-.638,4.415.473,6.619,3.25,6.448,8.008,13.626,16.275,12.868,2.873-.265,5.41-2.347,7.033-4.621a34.68,34.68,0,0,0,3.032-5.008,15.914,15.914,0,0,0,1.027-5.028c.788-8.279.6-17.233-3.88-24.587a6.946,6.946,0,0,0-3.916-3.159c-1.705-.528-3.814-1.438-5.636-1.1C5914.522,7311.393,5912.746,7314.427,5912.941,7314.833Z" transform="translate(-5715.917 -7166.163)"/>
          <path id="Tracé_607" data-name="Tracé 607" d="M5839.741,7132.908a58.612,58.612,0,0,0-4.787,11.349,17.022,17.022,0,0,1-.935,3.483c-1.038,2.113-1.719,3.78-.98,6.112a42.3,42.3,0,0,0,3.7,7.416,19.572,19.572,0,0,0,5.007,6.334,6.2,6.2,0,0,0,5.447.47c2.563-1.078,4.765-3.241,6.756-5.1,3.234-3.024,4.462-7.3,4.61-11.626a75.9,75.9,0,0,0-.251-8.338,8.757,8.757,0,0,0-3.059-6.41,59.96,59.96,0,0,0-6-3.627,12.955,12.955,0,0,0-3.128-1.8c-1.271-.319-2.593.512-3.789.844C5840.678,7132.471,5839.159,7132.88,5839.741,7132.908Z" transform="translate(-5659.347 -7021.715)"/>
          <path id="Tracé_608" data-name="Tracé 608" d="M5845.242,6884.756a30.844,30.844,0,0,0-5.344,5.991c-.108.526-.229,1.049-.36,1.57a26.2,26.2,0,0,1-1.193,3.3,10.154,10.154,0,0,0-.436,6.238c.752,3.876,1.443,7.653,3.378,11.131,1.385,2.494,3.761,5.314,6.894,5.32,2.6.007,5.289-2.455,7.006-4.238a22.905,22.905,0,0,0,6.274-15.6c-.05-2.851-.149-6.041-1.2-8.741-1.379-3.544-5.154-7.1-9.18-6.276a8.184,8.184,0,0,0-4.652,2.424C5845.516,6886.9,5844.238,6889.219,5845.242,6884.756Z" transform="translate(-5663.284 -6822.446)"/>
          <path id="Tracé_609" data-name="Tracé 609" d="M5989.039,7169.872c-2.449,1.731-3.949,2.846-4.938,5.7a11.175,11.175,0,0,0-.575,2.646,25.555,25.555,0,0,0,.5,6.5c.609,3.693,2.793,6.539,5.667,8.878,2.521,2.052,6.567,4.563,10,4.022a10.782,10.782,0,0,0,7.253-5.014c3.908-6.442,2.922-16.495-1.577-22.455a15.568,15.568,0,0,0-3.932-3.557,4.822,4.822,0,0,0-4.212-.34c-1.641.418-3.336.507-4.824,1.42a37.344,37.344,0,0,0-2.982,2.391C5988.483,7170.781,5987.1,7171.447,5989.039,7169.872Z" transform="translate(-5780.579 -7049.734)"/>
          <path id="Tracé_610" data-name="Tracé 610" d="M5993.375,6874.742a30.268,30.268,0,0,0-5.729,3.041q-.728,1.006-1.519,1.967a45.252,45.252,0,0,0-2.754,3.761,19.882,19.882,0,0,0-2.648,8.241,22.446,22.446,0,0,0,1.082,7.616,16.762,16.762,0,0,0,2.794,6,26.989,26.989,0,0,0,9.431,7.879,17.613,17.613,0,0,0,7.215,2.028c3.937.212,7.2-2.265,10.39-4.2,6.982-4.227,13.5-10.428,15.557-18.614a52.325,52.325,0,0,0,1.264-16.678c-.383-4.941-1.053-10.055-5.728-12.763-4.826-2.8-12.085-1.539-16.7,1.121a47.613,47.613,0,0,0-9.5,6.763c-1.842,1.782-3.545,3.684-5.539,5.306C5989.6,6877.339,5988.42,6878.223,5993.375,6874.742Z" transform="translate(-5778.335 -6804.841)"/>
          <path id="Tracé_611" data-name="Tracé 611" d="M5852.512,6632.25a23.263,23.263,0,0,0-5.689,3.078,8.851,8.851,0,0,1-1.45,1.861,30.215,30.215,0,0,0-2.778,3.342,18.934,18.934,0,0,0-3.2,8.829,22.093,22.093,0,0,0,3.437,12.952c2.276,3.421,5.874,6.636,10.1,7.271a32.663,32.663,0,0,0,5.685.233,10.083,10.083,0,0,0,5.119-1.617c3.948-2.089,6.492-7.151,7.744-11.3,1.788-5.931,3.021-13.186-.241-18.754a21.262,21.262,0,0,0-3.906-5.151c-1.6-1.445-3.467-1.82-5.513-2.115C5858.48,6630.391,5854.118,6629.792,5852.512,6632.25Z" transform="translate(-5664.659 -6619.052)"/>
          <path id="Tracé_612" data-name="Tracé 612" d="M6074.381,6586.12c-1.744,2.463-4.98,6-5.976,9.246a25.607,25.607,0,0,0-1.045,5.328,43.7,43.7,0,0,0-.043,9.692c.422,3.192.376,6.877,1.889,9.8a11.653,11.653,0,0,0,5.4,5.078c5.3,2.525,10.321-.434,14.985-2.85,5.934-3.07,11.513-8.693,13.22-15.311a18.82,18.82,0,0,0-2.9-15.37c-1.375-1.783-2.64-3.936-4.439-5.311a12.556,12.556,0,0,0-4.126-1.982,25.646,25.646,0,0,0-10.253-1.06,6.9,6.9,0,0,0-3.379,1.579,24.4,24.4,0,0,1-2.639,1.683C6074.015,6587.209,6072.545,6587.713,6074.381,6586.12Z" transform="translate(-5847.814 -6581.083)"/>
          <path id="Tracé_613" data-name="Tracé 613" d="M5982.106,7599.658a48.654,48.654,0,0,0-10.688,5.367,5.974,5.974,0,0,1-.493,1.547c-.717,1.467-1.818,2.756-2.547,4.226a32.686,32.686,0,0,0-3.082,10.27c-.841,7.229.727,15.879,4.738,22.02,1.8,2.749,3.537,5.051,6.5,6.662,2.369,1.289,5.263,1.13,7.873.882a20.392,20.392,0,0,0,12.5-6c5.264-5.2,7.688-13.025,7.457-20.3-.189-6.014-.027-13.624-4.128-18.5-2.246-2.673-6.04-5.487-9.612-5.549-1.86-.032-3.774-.387-5.623-.3C5983.165,7600.055,5981.987,7601.539,5982.106,7599.658Z" transform="translate(-5765.79 -7398.564)"/>
          <path id="Tracé_614" data-name="Tracé 614" d="M6071.4,7424.318c-2.721,3.332-6.36,6.87-7.448,11.279a27.837,27.837,0,0,0-.678,8.188c.2,3.1.555,6.494,3.231,8.558,1.7,1.309,4.257.667,6.276.593a8.866,8.866,0,0,0,7.529-4.345c3.925-6.223,6.027-14.41,3.421-21.557a17.044,17.044,0,0,0-1.969-4.259c-1.1-1.4-1.988-1.7-3.579-1.115C6075.009,7422.837,6073.109,7424.617,6071.4,7424.318Z" transform="translate(-5844.726 -7255.178)"/>
          <path id="Tracé_615" data-name="Tracé 615" d="M6162.067,7200.427c-2.42,3.69-4.845,6.892-6.354,10.969a40.436,40.436,0,0,0-1.872,6.691c-.795,4.345.2,8.48,1.583,12.585,1.258,3.728,3.153,7.19,4.761,10.77a27.669,27.669,0,0,0,5.605,8.305c3.735,3.722,8.769,1.821,12.428-1.021,2.887-2.241,5-6.264,6.434-9.572a42.263,42.263,0,0,0,2.975-9.654c.945-5.216,1.936-10.931,1.245-16.227-.679-5.215-2.957-12.863-8.213-15.211-1.58-.7-4.122-.155-5.863-.114-1.614.039-3.17.067-4.778.027a7.467,7.467,0,0,0-4.689,1.166C6163.868,7200.224,6163.069,7202.278,6162.067,7200.427Z" transform="translate(-5917.379 -7075.285)"/>
          <path id="Tracé_616" data-name="Tracé 616" d="M6202.915,7505.051c-4.191.141-9.11-.124-12.608,2.7a7.033,7.033,0,0,0-2.877,5.738,7.8,7.8,0,0,0,1.659,4.795c.651.874,1.472,1.57,2.12,2.444.637.859.98,1.912,1.634,2.752,2.09,2.679,6.018,4.375,9.038,5.768,3.584,1.651,6.873,3.411,10.938,2.657,8.766-1.629,10.374-10.46,7.357-17.784-1.371-3.328-3.575-6.726-7-8.162-2.07-.87-4.257-.12-6.423-.521a15.374,15.374,0,0,1-3.372-1.07C6202.372,7503.919,6201.563,7503.188,6202.915,7505.051Z" transform="translate(-5944.621 -7321.503)"/>
          <path id="Tracé_617" data-name="Tracé 617" d="M5844.47,7844.131c-3.984,4.167-10.378,9.039-10.6,15.588a30.411,30.411,0,0,0,1.7,10.322c1.74,5.252,5.357,11.766,10.793,13.85,4.979,1.908,9.736,1.918,14.394-.669,4.362-2.422,6.469-8.013,7.1-12.7.363-2.706-.286-5.015-1.066-7.618a44.378,44.378,0,0,0-2.582-7.7,44.991,44.991,0,0,0-5.782-8.356c-1.687-1.977-3.422-4.263-6.08-4.858C5848.327,7841.091,5844.352,7844.877,5844.47,7844.131Z" transform="translate(-5660.256 -7593.353)"/>
          <path id="Tracé_618" data-name="Tracé 618" d="M6040.73,7882.373a44.988,44.988,0,0,0-7.07,7.928,13.95,13.95,0,0,1-.377,1.781,14.273,14.273,0,0,0-.31,10.558,35.449,35.449,0,0,0,5,9.633,28.877,28.877,0,0,0,5.581,6.4c4.087,3.268,7.853,5.847,13.2,4.465a11.746,11.746,0,0,0,8.7-8.5,37.5,37.5,0,0,0-.288-15.8c-1.2-5.1-3.646-10.571-7.947-13.8-3.141-2.362-7.547-1.784-11.134-3.036-1.58-.552-2.886-1.15-4.546-.552C6040.212,7881.925,6039.13,7883.109,6040.73,7882.373Z" transform="translate(-5819.767 -7624.995)"/>
          <path id="Tracé_619" data-name="Tracé 619" d="M5021.14,7221.275q-3.758,2.257-7.288,4.853c-.238.53-.5,1.047-.78,1.555a8.96,8.96,0,0,0-1.532,3.182,14.554,14.554,0,0,0,.438,4.23,40.861,40.861,0,0,0,.984,4.907c.847,2.845,1.865,5.708,4.434,7.426,2.251,1.5,4.952,1.819,7.537,2.436,2.869.688,5.653.019,8.439-.709a43.971,43.971,0,0,0,7.973-2.644,30.3,30.3,0,0,0,4.914-2.758,19.466,19.466,0,0,0,4.558-5.607,23.422,23.422,0,0,0,2.863-6.623c.471-1.719,1.246-3.553,1.13-5.353-.347-5.379-4.08-9.644-8.571-12.256-5.021-2.918-10.795-1.232-15.848.6a37.894,37.894,0,0,0-6.629,2.889C5021.742,7218.6,5019.958,7220.438,5021.14,7221.275Z" transform="translate(-4998.852 -7087.053)"/>
          <path id="Tracé_620" data-name="Tracé 620" d="M5133.578,7596.757c-3.783,3.225-8.083,6.225-11.09,10.254-1.435,1.921-2.945,3.763-4.409,5.659-2.464,3.2-4.308,6.381-4.034,10.508.351,5.3,3.465,8.722,7.893,11.3a12.764,12.764,0,0,0,5.264,1.272c2.176.215,4.06-.487,6.135-1.046a26.591,26.591,0,0,0,13.483-8.566,117.028,117.028,0,0,0,9.189-15.563c2.087-4.709,2.894-10.705.668-15.519a6.308,6.308,0,0,0-3.769-3.719c-2.533-.733-5.42-.087-7.843.723C5139.463,7593.938,5134.145,7597.5,5133.578,7596.757Z" transform="translate(-5081.311 -7391.614)"/>
          <path id="Tracé_621" data-name="Tracé 621" d="M4949.953,7417.234c-1.517,3.8-3.95,7.756-2.684,11.95a11.251,11.251,0,0,0,2.791,4,22.213,22.213,0,0,0,6.658,5.441,10.371,10.371,0,0,0,8.23.224c1.418-.591,2.909-1.042,4.295-1.717a14.192,14.192,0,0,0,3.384-2.712c2.677-2.61,3.125-5.769,2.649-9.266a12.753,12.753,0,0,0-2.074-5.227,15.463,15.463,0,0,0-4.973-5.19,15,15,0,0,0-3.582-2.066,14.569,14.569,0,0,0-3.6-.387c-2.372-.1-4.585-.532-6.933-.086a4.6,4.6,0,0,0-2.345,1.382C4950.4,7415.008,4949.275,7416.825,4949.953,7417.234Z" transform="translate(-4946.916 -7247.636)"/>
          <path id="Tracé_622" data-name="Tracé 622" d="M6241.591,6913.259c-1.536,1.128-7.574,4.559-8.639,7.332a11.743,11.743,0,0,0-.542,3,27.284,27.284,0,0,0,.6,7.531c.672,3.423,2.283,7.186,5.133,9.3,2.916,2.167,6.557,4.214,10.107,2.326a22.721,22.721,0,0,0,7.244-6.177c2.938-3.884,4.392-8.713,2.908-13.549a15.943,15.943,0,0,0-7.075-9.046c-2.095-1.321-3.6-2.337-6.122-2.329C6241.857,6911.666,6240.068,6914.3,6241.591,6913.259Z" transform="translate(-5980.738 -6845.222)"/>
          <path id="Tracé_623" data-name="Tracé 623" d="M6240.077,6760.216c-2.446,1.128-5.959,1.913-7.346,4.455a22.309,22.309,0,0,0-1.671,3.32,5.815,5.815,0,0,0,.076,4.665c1.046,2.013,3.378,3.323,5.255,4.4,3.551,2.045,7.317.76,10.972-.345,1.941-.588,4-.847,5.979-1.248a13.337,13.337,0,0,0,3.6-.919c2.63-1.476,3.11-5.925,2.994-8.615-.14-3.274-1.257-7.469-3.619-9.819-2.179-2.167-5.371-4.826-8.589-3.273-1.848.893-3.426,3.259-4.962,4.607a18.2,18.2,0,0,0-2.334,2.563C6239.592,6761.081,6238.469,6761.977,6240.077,6760.216Z" transform="translate(-5979.349 -6717.121)"/>
          <path id="Tracé_624" data-name="Tracé 624" d="M6398.944,6825.112c-2.2,2.417-6.875,6.208-7.6,10-.284,1.49-.653,2.923-.833,4.436a76.505,76.505,0,0,0-.5,10.322,37.426,37.426,0,0,0,4.3,16.9c1.9,3.566,5.206,9.063,9.814,8.938a16.748,16.748,0,0,0,6.28-2.007,20.037,20.037,0,0,0,5.387-3.981,26.664,26.664,0,0,0,7.186-14.7c.862-7.332-.908-14.861-3.393-21.689-1.151-3.167-2.386-5.905-5.152-8a20.316,20.316,0,0,0-4.7-2.779c-1.619-.614-4.022-1.459-5.8-1.157C6400.766,6821.924,6398.255,6825.61,6398.944,6825.112Z" transform="translate(-6107.541 -6772.574)"/>
          <path id="Tracé_625" data-name="Tracé 625" d="M6307.572,7095.788a20.2,20.2,0,0,0-5.5,7.527l.469,1.558a39.332,39.332,0,0,0,2.382,5.867c1.772,3.5,3.617,7,5.48,10.447a33.724,33.724,0,0,0,11.553,12.3,22.312,22.312,0,0,0,8.282,3.569c2.1.332,3.676-.546,5.538-1.453,2.025-.986,3.6-1.483,4.63-3.58,1.277-2.6,1.49-5.661,1.7-8.507.408-5.694-1.512-11.637-4.1-16.671a35.744,35.744,0,0,0-4.464-6.2c-1.6-1.957-2.664-4.481-4.6-6.134-2.746-2.337-7.374-3.4-10.744-4.437C6311.564,7088.045,6306.57,7096.728,6307.572,7095.788Z" transform="translate(-6036.83 -6988.475)"/>
          <path id="Tracé_626" data-name="Tracé 626" d="M6379.717,7386.8c-.851.875-8.6,7.494-9.3,10.945-.17.842-.148,1.733-.306,2.593a15.375,15.375,0,0,0,.147,6.843c.967,3.4,3.481,6.941,5.72,9.631,2.4,2.877,5.577,6.453,9.613,6.364a11.7,11.7,0,0,0,10.361-6.056c2.964-4.847,4.353-11.712,1.657-17.062-1.694-3.361-4.641-5.335-7.381-7.725a15,15,0,0,0-7.305-3.447C6381.879,7388.692,6378.009,7387.847,6379.717,7386.8Z" transform="translate(-6091.298 -7227.37)"/>
          <path id="Tracé_627" data-name="Tracé 627" d="M6373.067,7605.257c-2.06,3.043-4.609,5.928-5.173,9.615a9.273,9.273,0,0,0,.439,4.17,14.157,14.157,0,0,0,4.7,7.307c1.628,1.334,3.778,3.211,6.029,3.125,2.948-.113,5.164-2.041,6.766-4.373,3.971-5.775,4.424-15.042-1.378-19.819a9.607,9.607,0,0,0-7.324-1.893C6373.583,7603.883,6371.865,7605.788,6373.067,7605.257Z" transform="translate(-6089.698 -7401.484)"/>
        </g>
      </g>
    </g>
    <path id="Tracé_316" data-name="Tracé 316" d="M5660.761,7659.245c-4.626-23.069,6.814-48.65,24.255-64.441,16.385-14.834,41.142-11.451,63.023-14.576,17.585-2.515,34.215-2.77,51.956-1.867,25.307,1.286,54.408-8.184,73.7,8.248,19.69,16.769,20.373,46.789,21.27,72.637.923,26.658,2.924,57.7-16.108,76.389-18.792,18.449-50.679,6-75.812,13.87-24.679,7.725-45.205,41.856-68.854,31.4-24.462-10.812-12.792-50.709-26.611-73.6-11.845-19.624-42.3-25.582-46.811-48.056" transform="translate(-8449.935 8092.512) rotate(-93)" fill="#ffe202"/>
    <g id="Groupe_399" data-name="Groupe 399" transform="matrix(-0.174, 0.985, -0.985, -0.174, -816.212, 1675.41)">
      <g id="Groupe_114" data-name="Groupe 114" clip-path="url(#clip-path-3)">
        <path id="Tracé_315-2" data-name="Tracé 315" d="M6747.145,7186.263c25.3-3.822,42.546,25.755,60.85,43.63,15.594,15.23,28.183,32.025,37.021,51.952,9.83,22.171,26.3,46.767,16.618,69-9.717,22.309-39.127,26.691-61.962,35.1-17,6.256-34.789,3.4-52.528,7.051-24.551,5.058-47.414,26.84-71.015,18.4-24.164-8.646-36.714-35.763-45.206-59.98-8.641-24.642-16.721-54.4-2.609-76.374,13.964-21.741,49.317-13.109,70.019-28.574,21.216-15.849,22.628-56.24,48.813-60.2" transform="translate(-6655.524 -7228.777)" fill="#fffddf"/>
        <g id="Groupe_113" data-name="Groupe 113" transform="translate(-28.019 -46.815)" opacity="0.17">
          <path id="Tracé_628" data-name="Tracé 628" d="M7028.057,7243.476c-13.409-2.512-24.388-3.431-36.112-9.95a96.767,96.767,0,0,0-14.982-7.272c-8.828-3.143-16.826-5.925-24.293-12.128-10.471-8.7-23.143-14.642-35.253-20.4-6.1-2.9-11.7-5.912-18.27-7.651-6.83-1.806-12.827-2.609-19.4-5.81-9.411-4.582-19.988-6.879-29.9-10.288" transform="translate(-6799.762 -7169.973)" fill="none" stroke="#000" stroke-miterlimit="10" stroke-width="3"/>
          <path id="Tracé_629" data-name="Tracé 629" d="M7009.533,7309.667a49.022,49.022,0,0,1-11.827-1.105,28.318,28.318,0,0,0-5.58-.532A28.568,28.568,0,0,1,6985.6,7307c-2.332-.635-4.646-.916-6.941-1.761-3.8-1.4-7.447-3.238-11.224-4.68a104.037,104.037,0,0,0-12.25-3.7,32.6,32.6,0,0,1-8.723-3.271c-.8-.45-1.631-.931-2.39-1.454-1.59-1.1-2.7-2.74-4.257-3.9a47.875,47.875,0,0,0-12.991-7.259c-3.051-1.013-6.2-1.5-9.128-2.955a36.993,36.993,0,0,1-4.4-2.633,13.231,13.231,0,0,1-2.863-3.055c-3.19-3.859-8.007-5.425-11.812-8.4-1.056-.824-1.829-1.858-2.949-2.628a19.171,19.171,0,0,0-3.353-1.752c-2.8-1.212-5.866-1.213-8.774-2.086-2-.6-3.64-1.876-5.683-2.331-3.306-.737-6.533-1.637-9.839-2.448-2.473-.6-4.841-1.6-7.325-2.162-2.922-.658-5.923-.893-8.8-1.827-2.848-.924-5.79-2.128-8.752-2.434-2.227-.232-4.408-.511-6.619-.861a24.209,24.209,0,0,1-3.088-.4,33.557,33.557,0,0,0-3.465-.869" transform="translate(-6784.823 -7225.712)" fill="none" stroke="#000" stroke-miterlimit="10" stroke-width="3"/>
          <path id="Tracé_630" data-name="Tracé 630" d="M6983.336,7374.744c-6.081-.767-12.162-1.733-18.24-2.442-3.692-.433-7.3-.9-10.755-2.567-3.815-1.839-7.557-2.274-11.6-3.229-3.48-.819-6.857-2.147-10.342-2.938-3.662-.833-7.382-1.447-11.058-2.241-4.732-1.022-9.407-2.21-14.074-3.573a88.917,88.917,0,0,1-20.726-8.6c-4.366-2.626-8.44-5.811-12.7-8.649a72.936,72.936,0,0,0-11.473-6.361c-4.826-2.1-9.531-4.8-14.513-6.386-2.988-.953-6.031-1.684-8.979-2.775-3.587-1.328-7.245-2.737-10.889-3.843-5.562-1.687-11.26-3.069-16.908-4.235a16.878,16.878,0,0,0-5.343-.554,11.446,11.446,0,0,1-2.864-.041c-1.534-.2-3.655-.083-4.986-1.061" transform="translate(-6760.717 -7279.152)" fill="none" stroke="#000" stroke-miterlimit="10" stroke-width="3"/>
          <path id="Tracé_631" data-name="Tracé 631" d="M6969.283,7505.729a30.351,30.351,0,0,1-11.034-1.438c-1.481-.533-2.855-1.451-4.365-1.871a48.816,48.816,0,0,0-12.62-1.414c-4.567-.013-8.919-1.312-13.4-2.239a97.339,97.339,0,0,0-11.614-1.6c-3.94-.322-7.842-1.123-11.774-1.383a46.972,46.972,0,0,1-14.506-3.341c-3.461-1.416-6.853-3.112-10.416-4.055a51.37,51.37,0,0,1-5.545-1.723,17.671,17.671,0,0,1-3.525-1.373c-1.183-.8-2.054-1.989-3.32-2.78-1.151-.719-2.531-1.19-3.621-1.974a5.059,5.059,0,0,0-3.2-1.3c-2.142-.08-4.263-.727-6.387-.678-1.952.043-3.909.207-5.866.313a69.068,69.068,0,0,1-8.454.229c-3.017-.2-5.786.375-8.762.372-2.221,0-4.328.272-6.586.112-5.09-.363-10.207-.839-15.3-1.044-5.593-.224-11.079.17-16.652-.688a48.487,48.487,0,0,0-5.389-.863c-.837-.034-1.644-.285-2.472-.4-.625-.085-1.234.25-1.779-.211-.086-.167-.045-.284.123-.347" transform="translate(-6749.268 -7399.987)" fill="none" stroke="#000" stroke-miterlimit="10" stroke-width="3"/>
          <path id="Tracé_632" data-name="Tracé 632" d="M6785.536,7359.315c6.642,1.943,13.279,3.911,19.973,5.58,3.872.966,7.816,1.345,11.668,2.4,5,1.373,11.125,2.19,15.462,5.507,1.494,1.14,2.576,3.553,1.566,5.242-1.277,2.138-4.709,1.811-6.829,1.564-2.139-.249-4.209-1.03-6.344-1.156a31.127,31.127,0,0,1-5.771-1.193c-1.613-.405-3.177-.568-4.763-1.121a26.165,26.165,0,0,0-5.035-1.615,33.6,33.6,0,0,1-6.22-1.081,13.8,13.8,0,0,0-4.183-.653,20.862,20.862,0,0,0-4.69-.172,13.669,13.669,0,0,1-3.036.246C6786.289,7372.829,6785.115,7372.892,6785.536,7359.315Z" transform="translate(-6751.362 -7312.272)" fill="none" stroke="#000" stroke-miterlimit="10" stroke-width="3"/>
          <path id="Tracé_633" data-name="Tracé 633" d="M6961.516,7556.015c-3.985-1.561-7.676-3.195-11.736-4.043-1.22-.254-2.469-.431-3.667-.741-1.823-.473-3.662-1.1-5.53-1.4a28.19,28.19,0,0,0-7.149-.12,29.8,29.8,0,0,1-8.216-.2c-3.182-.583-6.205-1.873-9.427-2.151-1.875-.161-3.795-.194-5.661-.507-3.2-.542-6.31-1.58-9.491-2.231-7.594-1.552-15.055-4.231-22.7-5.486a48.41,48.41,0,0,1-14.492-5.071c-1.368-.725-2.551-1.73-3.948-2.3-1.68-.688-3.233-.975-4.926-1.5-2.708-.832-5.429-1.138-8.142-1.771a19.327,19.327,0,0,0-5.779-.1c-2.011.137-3.629,1.22-5.508,1.751a34.738,34.738,0,0,1-6.793.918c-3.269.24-6.478.622-9.712,1.044a60.934,60.934,0,0,1-10.861.876c-5.194-.251-10.295-1.417-15.427-2.313-1.591-.277-3.211-.819-4.809-.958a16.808,16.808,0,0,1-2.49-.2,24.784,24.784,0,0,0-3.381-.552c-.911-.079-2.043-.573-2.863-.245" transform="translate(-6746.371 -7439.216)" fill="none" stroke="#000" stroke-miterlimit="10" stroke-width="3"/>
          <path id="Tracé_634" data-name="Tracé 634" d="M6774.767,7623.041c7.754,3.209,15.458,6.491,23.564,8.4,4.621,1.089,8.908,2.856,13.437,4.245,7.807,2.391,15.65,4.539,23.46,6.894,4.108,1.238,8.324,2.281,12.507,3.142,3.665.759,7.249,2,10.923,2.688a13.7,13.7,0,0,0,6.2-.4,60.472,60.472,0,0,1,7.639-1.078c3.327-.384,6.935-.142,9.939-1.458a42.9,42.9,0,0,1,7.045-1.957c2.015-.5,4.437-1.337,6.565-.761a7.5,7.5,0,0,1,2.254,1.45,38.1,38.1,0,0,0,3.315,1.987,59.237,59.237,0,0,1,10.733,7.858c2.526,2.392,5.638,3.835,8.258,6.107,2.551,2.216,5.21,4.293,7.785,6.475,4.569,3.866,8.372,9.809,14.236,11.734" transform="translate(-6743.335 -7510.473)" fill="none" stroke="#000" stroke-miterlimit="10" stroke-width="3"/>
          <path id="Tracé_635" data-name="Tracé 635" d="M6785.044,7568.869c7.946,2,15.832,4.267,23.6,7,2.22.781,4.276.695,6.5,1.094a23.968,23.968,0,0,0,4.709.425c3.587-.062,7.055-.366,10.606-.612a50.518,50.518,0,0,0,5.205-.7c1.546-.267,3.142.1,4.7.028a17.667,17.667,0,0,1,2.974-.31,28.05,28.05,0,0,1,3.176.793c1.813.422,3.572.9,5.371,1.386a72.433,72.433,0,0,0,9.611,1.649,48.912,48.912,0,0,1,10.36,2.829c2.9,1.066,5.038,2.093,6.993,4.561,1.1,1.384,1.893,3.616,1.182,5.228-1.105,2.5-4.17,3.4-6.692,3.458-2.489.057-4.869-.886-7.209-1.744-2.672-.982-5.729-1.144-8.445-1.688a10.786,10.786,0,0,1-1.606-.653c-.979-.374-2-.417-2.993-.723-1.975-.614-3.975-1.288-5.954-1.831-3.306-.905-6.89-.389-10.268-.669-1.772-.147-3.526-.779-5.338-.884-1.777-.1-3.564-.342-5.341-.526a34.21,34.21,0,0,1-6.824-1.049,26.759,26.759,0,0,0-4.354-.978c-6.15-.915-12.211-2.752-18.237-4.275a68.767,68.767,0,0,1-7.538-1.874,43.108,43.108,0,0,0-4.084-1.513C6784.154,7577.016,6783.248,7576.414,6785.044,7568.869Z" transform="translate(-6750.287 -7469.762)" fill="none" stroke="#000" stroke-miterlimit="10" stroke-width="3"/>
          <path id="Tracé_636" data-name="Tracé 636" d="M7340.564,7656.835c-6.032-2.4-10.458-4.6-16.572-5.283a77.2,77.2,0,0,1-10.3-2.094c-2.677-.682-5.951-1.389-8.655-1a14.167,14.167,0,0,1-6.375-.243,27.314,27.314,0,0,1-2.715-.742,6.963,6.963,0,0,0-3.51-.65c-1.705.393-2.212,1.828-1.509,3.372,1.4,3.068,5,4.674,7.458,6.676.753.613,1.359,1.367,2.159,1.918,1.206.832,2.56,1.437,3.785,2.246,2.08,1.372,4.232,2.675,6.294,4.063a39.629,39.629,0,0,1,3.852,3.174c1.579,1.386,3.427,2.432,4.953,3.85a58.539,58.539,0,0,1,4.042,4.644,41.36,41.36,0,0,0,3.935,4.083c1.286,1.145,3.526,4.962,5.482,4.619" transform="translate(-7131.027 -7528.3)" fill="none" stroke="#000" stroke-miterlimit="10" stroke-width="3"/>
          <path id="Tracé_637" data-name="Tracé 637" d="M7430.909,7717.6c-3.851-2.536-7.833-5.545-12.046-7.253a9.691,9.691,0,0,0-3.439-.341c1.2,3.518,4.262,4.675,6.811,7a35.265,35.265,0,0,0,3.663,3.039C7427.019,7720.833,7427.94,7722.306,7430.909,7717.6Z" transform="translate(-7224.818 -7575.833)" fill="none" stroke="#000" stroke-miterlimit="10" stroke-width="3"/>
          <path id="Tracé_638" data-name="Tracé 638" d="M6922.826,7737.986a100.6,100.6,0,0,0-8.673-8.774,26.726,26.726,0,0,1-2.174-1.982c-.9-.936-1.806-1.88-2.624-2.889a30.91,30.91,0,0,0-5.076-4.854c-4.2-3.337-7.734-5.853-12.861-7.274a34.428,34.428,0,0,0-12.918-1.423c-5.342.5-10.408,1.485-15.854.88-3-.337-6.017-.012-9.024-.347-3.961-.443-7.634,1.067-11.57,1.075a50.945,50.945,0,0,1-9.2-.346c-3.76-.682-7.539-.821-11.3-1.606-7.169-1.492-14.254-3.223-21.334-5.246-6.016-1.719-12.032-3.666-18.109-5.1a87.344,87.344,0,0,1-8.463-2.436c-1.306-.448-2.425-1.321-3.759-1.81a34.2,34.2,0,0,0-4-.808c-.994-.241-1.982-.693-2.955-1.026-1.406-.482-3.445-.812-4.6-1.936a.5.5,0,0,1,.4.3" transform="translate(-6730.981 -7562.362)" fill="none" stroke="#000" stroke-miterlimit="10" stroke-width="3"/>
          <path id="Tracé_639" data-name="Tracé 639" d="M6890.437,7776.3c-3.933-4.223-8.086-8.16-12.055-12.33a30.255,30.255,0,0,0-7.928-5.745,21.231,21.231,0,0,0-6.968-2.449c-1.952-.228-3.91.2-5.868-.129-1.988-.334-4.049-.737-6.042-1.138-7.564-1.517-15.257-1-22.883-2.121-4.8-.7-9.6-1.216-14.412-1.7-2.17-.221-4.2-.734-6.35-1.081-2.963-.478-5.968-.538-8.939-.936a81.4,81.4,0,0,1-8.127-1.8c-2.112-.514-4.243-.919-6.324-1.578-5.008-1.584-10.222-2.535-15.3-3.8-3.548-.886-7.162-1.456-10.636-2.685a67.906,67.906,0,0,0-9.29-2.533,23.679,23.679,0,0,1-3.127-1.145,22.2,22.2,0,0,1-2.193-.59c-1.154-.525-2.137-1.368-3.313-1.887-2.133-.943-4.506-2.778-6.779-3.25a32.049,32.049,0,0,1-4.248-.743c-1.235-.423-2.515-.78-3.7-1.273-.9-.372-1.676-.845-2.682-1.2a17.858,17.858,0,0,1-3.04-1.33" transform="translate(-6702.349 -7586.991)" fill="none" stroke="#000" stroke-miterlimit="10" stroke-width="3"/>
          <path id="Tracé_640" data-name="Tracé 640" d="M6726.722,7787.37c2.468.173,6.973.133,9.765,1.069.749.251,1.466.564,2.23.777a35.834,35.834,0,0,0,5.93.993,27.168,27.168,0,0,1,5.417.764,38.4,38.4,0,0,1,4.364,1.956,26.39,26.39,0,0,0,7.644,2.143c2.273.314,4.346,1.446,6.554,1.992,4.9,1.213,9.4,3.722,14.285,5.01,3.46.913,6.9,2,10.279,3.219a29.161,29.161,0,0,1,3.776,1.95c1.918,1.015,3.974,1.871,5.943,2.747,1.618.719,3.26,1.257,4.831,2.115,1.24.674,2.7,1.094,3.881,1.839a47.2,47.2,0,0,0,5.5,3.211c1.467.677,2.759,1.513,4.3,2.065,1.739.621,3.505.946,5.246,1.509a26.31,26.31,0,0,0,11.723,1.082,35.033,35.033,0,0,1,7.046-.874c1.3.064,2.6.391,3.9.555a13.736,13.736,0,0,0,4.44-.339c2.189-.407,4.577-.145,6.823-.23a25.586,25.586,0,0,1,7.473,1.243c2.646.787,5.262,1.569,7.9,2.371.984.3,1.9.488,2.885.7,1.4.3,2.707,1.021,4.115,1.336,1.251.281,2.542.044,3.8.357a9.349,9.349,0,0,1,3.081,1.583" transform="translate(-6707.228 -7633.974)" fill="none" stroke="#000" stroke-miterlimit="10" stroke-width="3"/>
          <path id="Tracé_641" data-name="Tracé 641" d="M6891.007,7875.332c-2.108-1.472-5.969-5.434-9.14-4.936a19.2,19.2,0,0,1-2.285.482c-3.062.141-6.1-1.3-9.183-1.333a50.013,50.013,0,0,1-6.814-.09c-3.384-.486-6.884-.982-10.279-1.153-3.149-.16-6.236-.566-9.387-.937a15.786,15.786,0,0,0-4.631-.146c-1.328.232-2.549.833-3.861,1.121a17.709,17.709,0,0,1-6.462.011,46.015,46.015,0,0,1-9.6-1.941c-2.636-.915-5.308-1.4-7.88-2.481-3.1-1.3-6.317-2.155-9.4-3.55-4.215-1.911-7.639-5.117-12.187-6.361a20.979,20.979,0,0,1-2.937-.83c-1.929-.828-3.45-2.217-5.227-3.306-2.036-1.25-4.586-1.128-6.737-2.288-1.055-.569-2.15-.976-3.211-1.5a16.263,16.263,0,0,1-3.5-2.8,15.146,15.146,0,0,0-5.656-3.15,57.292,57.292,0,0,1-7.9-2.562,94.642,94.642,0,0,0-8.684-3.878c-1.8-.628-3.52-1.638-5.321-2.224-.915-.3-1.9-.418-2.846-.778-.515-.195-1.148-.639-1.606-.366" transform="translate(-6714.416 -7666.2)" fill="none" stroke="#000" stroke-miterlimit="10" stroke-width="3"/>
          <path id="Tracé_642" data-name="Tracé 642" d="M6849.533,7903.3l-4.845-4.578q-1.094-1.957-2.555-1.327a23.668,23.668,0,0,0-2.875-.166,16.608,16.608,0,0,0-4.876.627,48.661,48.661,0,0,1-10.7,1.546,88.125,88.125,0,0,1-8.881-.243c-1.609-.146-3.188.175-4.8.1-2.093-.1-4.209-.516-6.307-.671a68.175,68.175,0,0,1-18.1-3.563c-1.96-.71-3.9-1.438-5.916-1.959-1.564-.4-3.011-.213-4.561-.538-4.692-.983-9.657-1.149-14.255-2.676-3.248-1.08-6.524-1.971-9.694-3.228a25.248,25.248,0,0,0-3.87-1.047c-1.542-.326-3.029-1.087-4.6-1.3-2.3-.319-4.508-.745-6.828-1.206a17.215,17.215,0,0,1-3.314-1.007c-1.584-.647-3.308-.878-4.866-1.562a27.841,27.841,0,0,1-6.543-3.895,14.615,14.615,0,0,0-2.327-1.947,16.325,16.325,0,0,1-2.852-2.049c-1.493-1.332-3.436-1.871-4.689-3.4-1.389-1.688-3.885-3.187-5.736-4.4a48.791,48.791,0,0,0-6.839-3.895c-1.879-.841-4.313-1.148-5.682-2.758-1.659-1.946-3.733-4.989-6.582-4.791" transform="translate(-6676.951 -7683.564)" fill="none" stroke="#000" stroke-miterlimit="10" stroke-width="3"/>
          <path id="Tracé_643" data-name="Tracé 643" d="M7156.334,8075.79a19.135,19.135,0,0,0-3.449-7.13,29.044,29.044,0,0,0-4.147.541,29.392,29.392,0,0,1-4.224.833c-4.523.746-8.716.211-13.3-.359-4.648-.582-9.22-1.368-13.883-1.8a11.361,11.361,0,0,0-3.551.386,26.637,26.637,0,0,1-3.718.122c-1.417.05-14.838-3.451-12.864,1.527.566,1.421,1.814,1.928,3.054,2.5,2.28,1.056,4.591,2.1,6.91,3.045,4.76,1.933,9.723,3.316,14.454,5.372a162.13,162.13,0,0,1,15.018,7.667,18.933,18.933,0,0,1,5.2,3.715c.957,1.084,2.454,3.138,3.98,3.18" transform="translate(-6985.507 -7844.301)" fill="none" stroke="#000" stroke-miterlimit="10" stroke-width="3"/>
          <path id="Tracé_644" data-name="Tracé 644" d="M6683.205,7916.333c5.149,4.621,9.626,8.9,15.472,12.221,2.873,1.631,5.4,3.813,8.4,5.262,4.382,2.113,8.757,4.19,13.06,6.479,4.076,2.169,8.476,3.7,12.562,5.9,3.11,1.669,6.46,2.436,9.7,3.724a74.588,74.588,0,0,1,8.784,4.168c2.231,1.245,4.348,3.853,6.831,4.376a26.764,26.764,0,0,1,7,2.292c3.781,1.909,7.783,3.169,11.638,4.858,1.386.606,2.794,1.173,4.188,1.838,2.3,1.1,4.582,2.493,6.776,3.819,2.656,1.608,5.543,2.749,8.189,4.353,3.143,1.906,6.552,3.136,9.668,5.078,3.2,1.99,6.26,4.221,9.3,6.466,1.833,1.353,3.666,2.843,5.612,4.006,2.4,1.433,4.959,2.625,7.257,4.257" transform="translate(-6674.521 -7730.896)" fill="none" stroke="#000" stroke-miterlimit="10" stroke-width="3"/>
          <path id="Tracé_645" data-name="Tracé 645" d="M6657.231,7957.134c2.313,1.621,6.8,4.227,9.06,6.679a17.816,17.816,0,0,0,1.718,1.876c1.507,1.238,3.531,1.734,5.246,2.565a57.753,57.753,0,0,1,6.16,3.45,54.98,54.98,0,0,0,5.662,2.772c3.261,1.622,5.771,4.3,8.97,6.063,4.853,2.672,9.828,5.022,14.8,7.454,4.563,2.229,9.3,3.887,13.913,6,3.8,1.744,7.785,2.943,11.606,4.656,3.317,1.483,7.232,2.845,10.166,5.126a16.018,16.018,0,0,1,3.4,3.86c.309.465.783.572.572,1.159-.174.488-1.2.909-1.626,1.081a8.475,8.475,0,0,1-5.493.042c-3.112-.987-6.213-2.048-9.315-3.068-1.728-.568-3.47-1.031-5.206-1.613-1.459-.49-2.961-.771-4.405-1.279a30.855,30.855,0,0,0-4.352-1.36,72.462,72.462,0,0,1-8.768-2.735c-4.709-1.533-9.315-3.189-14.056-4.56-3.393-.983-7-1.255-10.453-1.905a91.157,91.157,0,0,0-12.229-1.333c-2.521-.123-5.187-.113-7.7-.031-1.844.061-4.745-.4-6.334.381" transform="translate(-6655.002 -7761.56)" fill="none" stroke="#000" stroke-miterlimit="10" stroke-width="3"/>
          <path id="Tracé_646" data-name="Tracé 646" d="M6649.158,8003.648a32.526,32.526,0,0,1,4.529,1.573c.979.437,1.978.812,2.953,1.263,2.021.936,4.079,1.792,6.089,2.748,3.059,1.458,5.9,3.482,8.816,5.246a30.906,30.906,0,0,1,7.3,5.425c.28.315.878,1.111.523,1.483-.214.228-.6.129-.872.1-.508-.046-1-.1-1.507-.172-1.488-.223-2.959-.429-4.437-.763-1.342-.3-2.654-.739-3.984-1.107-2.674-.738-5.364-1.476-8.071-2.031-2.063-.424-4.134-.753-6.2-1.156-.763-.148-1.58-.1-2.36-.249a16.154,16.154,0,0,0-2.336-.146,13.7,13.7,0,0,1-1.345-.273" transform="translate(-6648.259 -7796.517)" fill="none" stroke="#000" stroke-miterlimit="10" stroke-width="3"/>
          <path id="Tracé_647" data-name="Tracé 647" d="M6662.308,8134.319c6.969,3.058,13.93,6.609,21.411,7.726,4.515.672,9.015,1.663,13.5,2.53,9.737,1.881,19.5,3.745,29.2,5.825a108.874,108.874,0,0,0,19.9,2.735c3.622.1,6.832-.062,10.453.733,2.5.546,5.026.815,7.515,1.4a120.9,120.9,0,0,1,14.35,4.193,44.531,44.531,0,0,1,5.032,1.964c2.022,1.052,3.829,2.587,5.806,3.737,3.038,1.766,5.878,4.192,8.972,5.761,1,.506,1.988,1,2.973,1.557,1.28.722,3.569,1.428,4.516,2.614" transform="translate(-6658.817 -7894.722)" fill="none" stroke="#000" stroke-miterlimit="10" stroke-width="3"/>
        </g>
      </g>
    </g>
    <path id="Tracé_2276" data-name="Tracé 2276" d="M7198.869,6629.316l-13.76-27.036-17.854,24.522,3.042-30.182-28.279,10.978,18.877-23.746-29.725-6.052,28.718-9.77-21.733-21.164,29.442,7.309-6.842-29.554,20.818,22.064,10.22-28.562,5.585,29.816,24.038-18.5-11.418,28.1,30.224-2.566-24.8,17.468,26.816,14.179-30.31,1.286,14.894,26.429-26.191-15.3Z" transform="translate(-7994.848 -4636.267)" fill="#ffe202"/>
    <path id="Tracé_2277" data-name="Tracé 2277" d="M6116.249,6148.29l-2.97-5.833-3.853,5.291.656-6.513-6.1,2.369,4.074-5.124-6.414-1.307,6.2-2.108-4.69-4.567,6.353,1.577-1.476-6.377,4.493,4.762,2.205-6.163,1.2,6.434,5.188-3.993-2.465,6.064,6.522-.555-5.352,3.77,5.786,3.06-6.54.277,3.214,5.7-5.65-3.3Z" transform="translate(-7074.567 -4259.488)" fill="#6500ff"/>
  </g>
</svg>
