<svg xmlns="http://www.w3.org/2000/svg" width="195.475" height="192.538" viewBox="0 0 195.475 192.538">
  <g id="Groupe_608" data-name="Groupe 608" transform="translate(-15665.496 1763.804)">
    <path id="Tracé_2984" data-name="Tracé 2984" d="M15.077,19.573V60.223h24.4V19.573H54.557V0H0V19.573Z" transform="translate(15665.496 -1727.445) rotate(-8)" fill="#ffe202"/>
    <path id="Tracé_3006" data-name="Tracé 3006" d="M28.4,46.451c11.115,0,18.44-4.3,18.44-12.075,0-6.1-2.892-10.343-7.646-11.371,3.924-1.221,6.36-4.819,6.36-10.087C45.552,5.585,37.907,0,26.342,0H0V46.451ZM23.965,28.2a3,3,0,0,1,3.277,3.148c0,1.413-1.284,2.312-3.277,2.312h-5.2V28.2ZM22.423,12.786c2.113,0,3.533.964,3.533,2.442,0,1.543-1.413,2.506-3.533,2.506H18.761V12.786Z" transform="translate(15686.882 -1653.103) rotate(4.012)" fill="#fffddf"/>
    <path id="Tracé_3007" data-name="Tracé 3007" d="M0,19.8C0,31.672,8.442,39.545,21.233,39.545c12.843,0,21.282-7.879,21.282-19.75C42.518,7.879,34.076,0,21.233,0,8.442,0,0,7.879,0,19.8Zm14.942,0c0-4.348,2.507-7.163,6.294-7.163,3.837,0,6.339,2.813,6.339,7.163,0,4.3-2.507,7.112-6.339,7.112C17.448,26.913,14.942,24.1,14.942,19.8Z" transform="matrix(0.946, 0.326, -0.326, 0.946, 15726.585, -1719.049)" fill="#ffe202"/>
    <path id="Tracé_3008" data-name="Tracé 3008" d="M0,24.324C0,38.908,10.371,48.587,26.084,48.587c15.777,0,26.148-9.679,26.148-24.263C52.234,9.679,41.861,0,26.084,0,10.371,0,0,9.679,0,24.324Zm18.354,0c0-5.343,3.081-8.8,7.731-8.8,4.714,0,7.794,3.456,7.794,8.8,0,5.283-3.081,8.738-7.794,8.738C21.433,33.054,18.354,29.606,18.354,24.324Z" transform="matrix(0.946, -0.326, 0.326, 0.946, 15727.438, -1660.628)" fill="#fffddf"/>
    <path id="Tracé_3009" data-name="Tracé 3009" d="M17.259,42.735V27.426h9.1V42.735H43.62V0H26.362V14.245h-9.1V0H0V42.735Z" transform="translate(15756.55 -1763.804) rotate(25.976)" fill="#ffe202"/>
    <path id="Tracé_3010" data-name="Tracé 3010" d="M18.162,44.978V28.862h9.58V44.978H45.9V0H27.742V14.991h-9.58V0H0V44.978Z" transform="translate(15759.396 -1613.545) rotate(-19.993)" fill="#fffddf"/>
    <path id="Tracé_3011" data-name="Tracé 3011" d="M40.2,36.482c0,5.536-2.717,8.985-6.9,8.985-5.263-.545-6.807-4.9-6.807-8.985V0H0V37.572C0,55.9,13.25,67.882,33.307,67.882c20.147,0,33.4-11.98,33.4-30.312V0H40.2Z" transform="matrix(0.961, 0.276, -0.276, 0.961, 15796.852, -1729.8)" fill="#ffe202"/>
    <path id="Tracé_2983" data-name="Tracé 2983" d="M22.628,20.527c0,3.115-1.532,5.056-3.882,5.056-2.963-.3-3.831-2.758-3.831-5.056V0H0V21.147C0,31.465,7.458,38.2,18.746,38.2c11.34,0,18.8-6.742,18.8-17.056V0H22.628Z" transform="translate(15817.911 -1632.35) rotate(-9)" fill="#fffddf"/>
  </g>
</svg>
