<svg xmlns="http://www.w3.org/2000/svg" width="149.829" height="115.064" viewBox="0 0 149.829 115.064">
  <g id="Groupe_773" data-name="Groupe 773" transform="translate(2671.85 235.542)">
    <path id="Tracé_3332" data-name="Tracé 3332" d="M-2670.339-219.651l-1.511-10.49,29.238-4.21,1.51,10.49-8.079,1.164,3.137,21.783-13.079,1.883-3.137-21.784Z" transform="translate(0 -0.445)" fill="#fffddf"/>
    <path id="Tracé_3333" data-name="Tracé 3333" d="M-2596.8-232.837c11.118,2.13,17.119,10.352,15.141,20.672-1.969,10.276-10.584,15.7-21.7,13.566-11.073-2.121-17.074-10.343-15.105-20.619C-2616.489-229.538-2607.874-234.959-2596.8-232.837Zm-4.464,23.3c3.322.636,5.959-1.384,6.672-5.1.721-3.765-.982-6.617-4.3-7.253-3.278-.628-5.915,1.392-6.636,5.157C-2606.246-213.019-2604.543-210.167-2601.265-209.538Z" transform="translate(-19.81 -0.841)" fill="#fffddf"/>
    <path id="Tracé_3334" data-name="Tracé 3334" d="M-2552.895-198.212l-2.2-32.532,13.139-.887.731,10.844,6.93-.467-.732-10.845,13.139-.886,2.2,32.532-13.139.887-.787-11.654-6.93.467.787,11.654Z" transform="translate(-43.632 -0.956)" fill="#fffddf"/>
    <path id="Tracé_3335" data-name="Tracé 3335" d="M-2470.623-231.98l12.958,2.348-3.329,18.371c-1.625,8.964-9.165,13.648-19.017,11.862-9.807-1.777-15.224-8.808-13.6-17.772l3.329-18.372,12.958,2.348-3.232,17.839c-.362,2,.006,4.263,2.532,5,2.041.37,3.678-1.075,4.169-3.782Z" transform="translate(-66.499 0)" fill="#fffddf"/>
    <path id="Tracé_3336" data-name="Tracé 3336" d="M-2549.526-141.128h-18.491v-9.02h18.491Z" transform="translate(-38.801 -31.911)" fill="#fffddf"/>
    <path id="Tracé_3337" data-name="Tracé 3337" d="M-2669.535-72.947l-1.628-32.565,18.468-.923c8.108-.405,13.664,3.246,13.921,8.38.185,3.693-1.4,6.3-4.106,7.295,3.369.554,5.545,3.425,5.759,7.7.272,5.45-4.711,8.725-12.5,9.114Zm11.973-24.26.173,3.469,2.568-.128c1.486-.075,2.443-.8,2.389-1.881-.052-1.036-1.077-1.662-2.563-1.588Zm.541,10.81.191,3.829,3.648-.182c1.4-.07,2.266-.745,2.216-1.736a2.108,2.108,0,0,0-2.407-2.093Z" transform="translate(-0.257 -48.234)" fill="#fffddf"/>
    <path id="Tracé_3338" data-name="Tracé 3338" d="M-2593.613-108.017c11.25,1.248,17.881,8.972,16.722,19.416-1.154,10.4-9.315,16.481-20.566,15.233-11.206-1.243-17.836-8.966-16.683-19.366C-2612.98-103.177-2604.819-109.26-2593.613-108.017Zm-2.616,23.578c3.362.373,5.832-1.849,6.25-5.614.422-3.81-1.5-6.519-4.862-6.893-3.317-.368-5.787,1.854-6.209,5.664C-2601.468-87.516-2599.546-84.807-2596.229-84.439Z" transform="translate(-21.517 -47.595)" fill="#fffddf"/>
    <path id="Tracé_3339" data-name="Tracé 3339" d="M-2548.123-73.074l-3.088-32.459,13.109-1.248,1.03,10.82,6.914-.658-1.03-10.82,13.109-1.248,3.088,32.46-13.109,1.247-1.106-11.628-6.914.658,1.106,11.628Z" transform="translate(-45.081 -47.404)" fill="#fffddf"/>
    <path id="Tracé_3340" data-name="Tracé 3340" d="M-2466.83-106.9l13.058,1.706-2.419,18.514c-1.181,9.033-8.481,14.083-18.408,12.786-9.883-1.291-15.64-8.048-14.46-17.08l2.419-18.514,13.058,1.706-2.349,17.977c-.263,2.012.217,4.258,2.775,4.865,2.057.269,3.621-1.255,3.977-3.983Z" transform="translate(-68.25 -47.105)" fill="#fffddf"/>
  </g>
</svg>
