<svg xmlns="http://www.w3.org/2000/svg" xmlns:xlink="http://www.w3.org/1999/xlink" width="761" height="657" viewBox="0 0 761 657">
  <defs>
    <clipPath id="clip-path">
      <rect id="Rectangle_275" data-name="Rectangle 275" width="761" height="657" transform="translate(-4612 2637)" fill="#fff" stroke="#707070" stroke-width="1"/>
    </clipPath>
  </defs>
  <g id="Groupe_de_masques_19" data-name="Groupe de masques 19" transform="translate(4612 -2637)" clip-path="url(#clip-path)">
    <g id="Groupe_444" data-name="Groupe 444" transform="translate(-4784.006 2458.702)">
      <g id="Groupe_413" data-name="Groupe 413" transform="translate(0)">
        <rect id="Rectangle_259" data-name="Rectangle 259" width="746.99" height="658.238" transform="translate(180.709 179.884)" fill="#fffddf"/>
        <g id="Groupe_411" data-name="Groupe 411" transform="translate(929.424) rotate(74)" opacity="0.17">
          <path id="Tracé_2288" data-name="Tracé 2288" d="M614.572,253.48c-46.244-8.662-84.106-11.831-124.538-34.314-17.52-9.734-32.89-18.4-51.667-25.076-30.445-10.839-58.028-20.434-83.778-41.826-36.111-30-79.81-50.494-121.573-70.363-21.035-10-40.356-20.388-63-26.387-23.553-6.226-44.237-9-66.908-20.036C70.65,19.677,34.175,11.756,0,0" transform="translate(172.727 0)" fill="none" stroke="#000" stroke-miterlimit="10" stroke-width="3"/>
          <path id="Tracé_2289" data-name="Tracé 2289" d="M619.238,225.976c-13.745.021-27.221-.517-40.786-3.814-6.521-1.579-12.626-1.529-19.243-1.833a98.53,98.53,0,0,1-22.495-3.556c-8.042-2.188-16.023-3.158-23.939-6.072-13.091-4.816-25.684-11.168-38.707-16.141A359.075,359.075,0,0,0,431.821,181.8c-10.677-2.589-20.19-5.7-30.079-11.278-2.742-1.548-5.623-3.21-8.24-5.011-5.484-3.781-9.32-9.452-14.679-13.447-13.666-10.181-28.98-19.772-44.8-25.032-10.521-3.493-21.389-5.185-31.479-10.188a127.21,127.21,0,0,1-15.182-9.08c-4.6-3.144-6.533-6.492-9.875-10.537-11.005-13.308-27.613-18.707-40.734-28.959-3.641-2.841-6.308-6.408-10.17-9.062a66.254,66.254,0,0,0-11.565-6.042c-9.642-4.18-20.229-4.186-30.261-7.2-6.912-2.077-12.55-6.469-19.6-8.037-11.4-2.542-22.527-5.647-33.93-8.444-8.528-2.084-16.695-5.53-25.261-7.454-10.076-2.269-20.424-3.078-30.362-6.3-9.821-3.185-19.965-7.338-30.183-8.393-7.681-.8-15.2-1.76-22.827-2.971C19.063,3.806,15.445,4.02,11.947,3A116.234,116.234,0,0,0,0,0" transform="translate(155.693 63.551)" fill="none" stroke="#000" stroke-miterlimit="10" stroke-width="3"/>
          <path id="Tracé_2290" data-name="Tracé 2290" d="M639.507,205.187c-20.973-2.644-41.942-5.978-62.9-8.425-12.734-1.491-25.163-3.11-37.09-8.853-13.16-6.341-26.06-7.844-39.99-11.133-12-2.827-23.647-7.407-35.664-10.133-12.628-2.873-25.456-4.99-38.133-7.731-16.319-3.526-32.441-7.619-48.537-12.321-24.191-7.066-49.436-16.415-71.473-29.666-15.059-9.054-29.107-20.037-43.781-29.825a251.247,251.247,0,0,0-39.566-21.938c-16.642-7.238-32.868-16.558-50.047-22.022-10.306-3.288-20.8-5.806-30.967-9.571-12.369-4.58-24.986-9.439-37.551-13.253C84.623,14.5,64.978,9.732,45.5,5.712,39.146,4.4,33.3,3.115,27.071,3.8a39.305,39.305,0,0,1-9.877-.141C11.9,2.972,4.588,3.375,0,0" transform="translate(128.214 124.473)" fill="none" stroke="#000" stroke-miterlimit="10" stroke-width="3"/>
          <path id="Tracé_2291" data-name="Tracé 2291" d="M643.589,102.427c-13.041.184-25.421-.425-38.052-4.961-5.11-1.836-9.849-5-15.055-6.452-13.892-3.864-29.4-4.823-43.52-4.879-15.752-.044-30.759-4.525-46.2-7.721a335.9,335.9,0,0,0-40.051-5.528c-13.59-1.111-27.043-3.874-40.606-4.768A162.015,162.015,0,0,1,370.076,56.6c-11.936-4.88-23.631-10.731-35.921-13.982a177.036,177.036,0,0,1-19.123-5.941c-3.862-1.5-8.659-2.368-12.157-4.736-4.077-2.769-7.083-6.856-11.45-9.586-3.97-2.478-8.729-4.1-12.488-6.807-3.95-2.838-6.189-4.309-11.029-4.494-7.387-.274-14.7-2.507-22.025-2.338-6.732.149-13.482.716-20.229,1.082-9.567.532-19.538,1.447-29.156.789-10.4-.705-19.955,1.3-30.215,1.283-7.659-.012-14.926.936-22.714.386-17.551-1.254-35.2-2.9-52.746-3.6-19.289-.771-38.21.59-57.429-2.374C27.146,5.312,21.059,3.54,14.812,3.3c-2.888-.115-5.669-.983-8.527-1.369C4.131,1.634,2.029,2.788.151,1.2-.146.625-.005.218.575,0" transform="translate(115.155 262.231)" fill="none" stroke="#000" stroke-miterlimit="10" stroke-width="3"/>
          <path id="Tracé_2292" data-name="Tracé 2292" d="M.3,0C23.211,6.7,46.095,13.489,69.182,19.243c13.351,3.331,26.953,4.639,40.239,8.284,17.236,4.736,38.363,7.557,53.322,18.993,5.15,3.929,8.886,12.252,5.4,18.077-4.4,7.372-16.242,6.244-23.547,5.4-7.378-.859-14.517-3.552-21.878-3.988-6.788-.392-13.254-2.442-19.9-4.115-5.565-1.4-10.956-1.961-16.426-3.864-5.858-2.04-11.26-4.747-17.366-5.572C62.073,51.51,54.206,51,47.579,48.726c-5.2-1.8-8.957-1.936-14.423-2.254-5.332-.315-10.863-1.5-16.177-.593a47.033,47.033,0,0,1-10.469.848C2.9,46.6-1.146,46.818.3,0Z" transform="translate(117.548 162.233)" fill="none" stroke="#000" stroke-miterlimit="10" stroke-width="3"/>
          <path id="Tracé_2293" data-name="Tracé 2293" d="M630.091,95.83c-13.745-5.383-26.471-11.018-40.473-13.945-4.208-.876-8.514-1.485-12.646-2.553-6.286-1.634-12.628-3.8-19.072-4.819a97.279,97.279,0,0,0-24.657-.415c-9.481.856-18.78,1.078-28.333-.69-10.97-2.009-21.4-6.455-32.506-7.417-6.469-.554-13.087-.667-19.524-1.749-11.05-1.867-21.76-5.448-32.731-7.7-26.188-5.353-51.919-14.591-78.288-18.92-17.012-2.783-34.446-9.253-49.978-17.487-4.717-2.5-8.8-5.968-13.615-7.948-5.794-2.37-11.153-3.359-16.987-5.163C251.943,4.161,242.558,3.1,233.2.922c-6.61-1.539-13.229-.787-19.929-.33-6.935.472-12.514,4.209-18.994,6.039-7.439,2.105-15.687,2.6-23.425,3.168-11.273.826-22.34,2.146-33.494,3.6-12.347,1.617-24.835,3.633-37.457,3.022-17.912-.868-35.5-4.887-53.2-7.98-5.487-.956-11.075-2.823-16.584-3.3-2.784-.236-5.62,0-8.586-.677A85.687,85.687,0,0,0,9.875,2.56C6.732,2.288,2.829.586,0,1.715" transform="translate(111.854 306.961)" fill="none" stroke="#000" stroke-miterlimit="10" stroke-width="3"/>
          <path id="Tracé_2294" data-name="Tracé 2294" d="M0,0C26.738,11.066,53.307,22.387,81.265,28.969c15.934,3.756,30.719,9.85,46.336,14.639,26.921,8.246,53.971,15.654,80.9,23.774,14.168,4.271,28.7,7.867,43.13,10.834,12.639,2.617,25,6.887,37.669,9.267,7.678,1.438,14.137.428,21.378-1.394,8.356-2.1,17.736-2.722,26.344-3.718,11.472-1.325,23.913-.488,34.276-5.029,7.757-3.4,16.087-4.712,24.294-6.749,6.95-1.722,15.3-4.61,22.642-2.622,2.879.766,5.378,3.226,7.772,5,3.608,2.659,7.618,4.594,11.434,6.854,13.149,7.777,25.707,16.4,37.017,27.1,8.712,8.249,19.44,13.225,28.478,21.062,8.8,7.642,17.967,14.8,26.846,22.329,15.759,13.331,28.873,33.826,49.1,40.465" transform="translate(108.395 388.201)" fill="none" stroke="#000" stroke-miterlimit="10" stroke-width="3"/>
          <path id="Tracé_2295" data-name="Tracé 2295" d="M3.542,0c27.4,6.9,54.6,14.713,81.39,24.129,7.655,2.694,14.747,2.4,22.4,3.771a82.475,82.475,0,0,0,16.242,1.467c12.37-.214,24.327-1.263,36.576-2.109a174.435,174.435,0,0,0,17.95-2.424c5.331-.92,10.833.354,16.213.1,3.626-.177,6.517-1.467,10.255-1.07,3.659.4,7.342,1.9,10.954,2.735,6.248,1.457,12.318,3.12,18.522,4.78,10.962,2.921,22.052,4.278,33.145,5.688,11.89,1.517,24.291,5.54,35.728,9.755,10,3.676,17.373,7.219,24.117,15.728,3.782,4.774,6.527,12.471,4.075,18.031C327.3,89.193,316.73,92.31,308.031,92.5c-8.585.2-16.792-3.055-24.861-6.013-9.214-3.386-19.759-3.945-29.125-5.821-1.931-.4-3.592-1.506-5.539-2.254-3.378-1.288-6.914-1.441-10.323-2.493-6.81-2.119-13.705-4.441-20.532-6.314-11.4-3.121-23.76-1.342-35.409-2.307-6.114-.508-12.162-2.686-18.408-3.046-6.13-.353-12.291-1.178-18.419-1.815-7.848-.8-15.87-1.219-23.532-3.616a92.348,92.348,0,0,0-15.014-3.374C85.656,52.3,64.757,45.961,43.973,40.707c-8.672-2.2-17.742-3.324-26-6.458C13.536,32.56,8.942,30.4,3.894,29.029.473,28.1-2.653,26.017,3.542,0Z" transform="translate(116.322 341.781)" fill="none" stroke="#000" stroke-miterlimit="10" stroke-width="3"/>
          <path id="Tracé_2296" data-name="Tracé 2296" d="M172.216,34.749c-20.8-8.263-36.065-15.865-57.151-18.22-11.717-1.315-23.941-4.257-35.506-7.221C70.328,6.953,59.035,4.518,49.712,5.86c-8.066,1.155-13.785,1.355-21.986-.839a95.3,95.3,0,0,1-9.363-2.561C14.837,1.149,9.924-.623,6.26.218c-5.88,1.354-7.626,6.3-5.2,11.627,4.823,10.58,17.25,16.118,25.719,23.023,2.6,2.113,4.689,4.714,7.449,6.612,4.157,2.869,8.825,4.955,13.052,7.745,7.173,4.73,14.594,9.225,21.706,14.011,4.682,3.152,9.036,7.215,13.281,10.946,5.446,4.779,11.816,8.386,17.083,13.279,5.066,4.7,9.4,10.782,13.936,16.015a142.223,142.223,0,0,0,13.572,14.076c4.435,3.949,12.159,17.113,18.9,15.929" transform="translate(550.392 408.519)" fill="none" stroke="#000" stroke-miterlimit="10" stroke-width="3"/>
          <path id="Tracé_2297" data-name="Tracé 2297" d="M53.4,26.191C40.122,17.444,26.389,7.066,11.859,1.176,8.068-.361,4.218.144,0,0,4.13,12.134,14.7,16.122,23.483,24.138a121.875,121.875,0,0,0,12.633,10.48C39.988,37.337,43.165,42.415,53.4,26.191Z" transform="translate(657.319 462.713)" fill="none" stroke="#000" stroke-miterlimit="10" stroke-width="3"/>
          <path id="Tracé_2298" data-name="Tracé 2298" d="M567.286,158.3c-10.107-10.795-18.858-20.989-29.909-30.259a91.831,91.831,0,0,1-7.5-6.836c-3.1-3.225-6.228-6.484-9.05-9.963a106.57,106.57,0,0,0-17.506-16.737C488.828,83,476.652,74.326,458.971,69.421c-15.16-4.218-29.023-6.375-44.547-4.908-18.422,1.733-35.893,5.125-54.677,3.035-10.346-1.161-20.748-.041-31.121-1.2-13.659-1.527-26.327,3.681-39.9,3.71-10.5.016-21.213.706-31.714-1.193-12.965-2.353-26-2.833-38.965-5.54-24.723-5.147-49.156-11.112-73.571-18.09-20.746-5.93-41.495-12.644-62.453-17.6a301.614,301.614,0,0,1-29.184-8.4c-4.5-1.545-8.364-4.557-12.964-6.24-4.7-1.725-9.089-1.631-13.806-2.786-3.429-.833-6.838-2.391-10.189-3.54C11.026,5.013,3.993,3.875,0,0A1.725,1.725,0,0,1,1.368,1.043" transform="translate(94.308 447.355)" fill="none" stroke="#000" stroke-miterlimit="10" stroke-width="3"/>
          <path id="Tracé_2299" data-name="Tracé 2299" d="M586.971,177.414c-13.564-14.564-27.887-28.14-41.575-42.523-7.666-8.047-17.678-14.844-27.339-19.813-7.551-3.877-15.761-7.466-24.032-8.443-6.731-.785-13.483.7-20.236-.446-6.854-1.15-13.962-2.543-20.834-3.926-26.086-5.228-52.613-3.461-78.914-7.312-16.552-2.429-33.108-4.194-49.7-5.865-7.484-.762-14.484-2.532-21.9-3.727-10.217-1.648-20.581-1.855-30.828-3.226-9.318-1.257-18.827-3.984-28.027-6.221-7.281-1.77-14.63-3.17-21.806-5.44-17.271-5.464-35.251-8.742-52.769-13.114-12.239-3.056-24.7-5.02-36.681-9.259a234.433,234.433,0,0,0-32.037-8.735c-3.921-.774-7.084-2.68-10.787-3.947-2.429-.83-5.121-.926-7.563-2.034-3.978-1.81-7.37-4.718-11.427-6.508-7.357-3.251-15.536-9.58-23.377-11.21-5.108-1.07-9.595-.821-14.649-2.562-4.259-1.458-8.672-2.686-12.762-4.391C16.638,7.431,13.95,5.8,10.48,4.586A61.352,61.352,0,0,1,0,0" transform="translate(61.669 475.427)" fill="none" stroke="#000" stroke-miterlimit="10" stroke-width="3"/>
          <path id="Tracé_2300" data-name="Tracé 2300" d="M0,0C8.512.6,24.049.459,33.675,3.684c2.582.867,5.054,1.948,7.691,2.683a123.378,123.378,0,0,0,20.45,3.424c6,.645,12.859.735,18.683,2.636,5.245,1.722,10.05,4.383,15.048,6.743a91.034,91.034,0,0,0,26.361,7.391c7.839,1.085,14.987,4.988,22.6,6.87,16.884,4.184,32.413,12.834,49.263,17.276,11.935,3.149,23.8,6.887,35.449,11.1,4.772,1.722,8.55,4.356,13.022,6.724,6.612,3.5,13.705,6.452,20.5,9.471,5.579,2.479,11.242,4.334,16.659,7.3,4.277,2.323,9.318,3.773,13.386,6.341,6.318,4,12.115,7.908,18.961,11.076,5.058,2.331,9.516,5.216,14.815,7.121,6,2.142,12.088,3.262,18.09,5.206,12.763,4.116,27.43,5.75,40.427,3.728,7.888-1.229,16.216-3.432,24.3-3.015,4.473.222,8.97,1.349,13.43,1.916,5.474.683,10.066-.2,15.314-1.17,7.549-1.4,15.783-.5,23.53-.795,7.862-.307,18.038,1.984,25.77,4.285,9.126,2.713,18.146,5.408,27.242,8.176,3.395,1.041,6.537,1.681,9.949,2.421,4.817,1.043,9.333,3.519,14.191,4.607,4.315.968,8.765.152,13.1,1.234,3.955.989,7.174,3.058,10.626,5.461" transform="translate(67.229 529)" fill="none" stroke="#000" stroke-miterlimit="10" stroke-width="3"/>
          <path id="Tracé_2301" data-name="Tracé 2301" d="M533.566,155.473c-7.271-5.075-20.583-18.741-31.519-17.022-2.793.441-4.975,1.532-7.881,1.664-10.558.486-21.033-4.5-31.666-4.6-7.922-.077-15.55.837-23.5-.31-11.669-1.678-23.738-3.387-35.449-3.978-10.86-.55-21.506-1.952-32.369-3.228-5.392-.643-10.644-1.438-15.97-.5-4.58.8-8.791,2.872-13.317,3.865-7.775,1.718-14.313,1.055-22.283.037-11.411-1.46-22.006-2.849-33.091-6.691-9.09-3.154-18.306-4.84-27.177-8.557-10.689-4.484-21.787-7.432-32.4-12.242C212.4,97.32,200.6,86.264,184.915,81.975c-3.472-.959-6.723-1.4-10.127-2.864-6.65-2.856-11.9-7.647-18.024-11.4-7.023-4.31-15.816-3.892-23.235-7.891-3.637-1.962-7.416-3.362-11.073-5.189-4.693-2.331-8.2-6.151-12.065-9.647A52.254,52.254,0,0,0,90.886,34.124c-9.219-2.783-18.447-4.74-27.234-8.837C53.613,20.609,44.126,15.556,33.7,11.913,27.492,9.747,21.568,6.266,15.355,4.242,12.2,3.214,8.813,2.8,5.541,1.56,3.766.887,1.581-.644,0,.3" transform="translate(75.424 565.737)" fill="none" stroke="#000" stroke-miterlimit="10" stroke-width="3"/>
          <path id="Tracé_2302" data-name="Tracé 2302" d="M562.454,172.249l-16.709-15.788q-3.773-6.746-8.812-4.577c-2.942-.537-6.92-.435-9.915-.572-6.229-.287-10.941.8-16.816,2.162-12.224,2.824-24.28,5.247-36.9,5.332a303.929,303.929,0,0,1-30.629-.841c-5.55-.505-11,.605-16.559.331-7.216-.358-14.515-1.779-21.751-2.313-20.809-1.539-42.354-5.025-62.41-12.289-6.759-2.447-13.465-4.961-20.4-6.756-5.394-1.394-10.385-.733-15.729-1.855-16.182-3.389-33.3-3.964-49.162-9.226-11.2-3.725-22.5-6.8-33.429-11.132a87.054,87.054,0,0,0-13.347-3.61c-5.318-1.126-10.445-3.749-15.864-4.5-7.939-1.1-15.546-2.57-23.549-4.157a59.523,59.523,0,0,1-11.429-3.473c-5.462-2.233-11.406-3.028-16.782-5.385-7.382-3.253-16.371-8.085-22.563-13.431-2.814-2.431-4.67-4.775-8.026-6.716a56.314,56.314,0,0,1-9.834-7.065c-5.149-4.6-11.85-6.454-16.17-11.716-4.791-5.823-13.4-10.995-19.784-15.176A168.28,168.28,0,0,0,42.3,26.064c-6.48-2.9-14.874-3.96-19.594-9.511C16.977,9.842,9.826-.65,0,.032" transform="translate(32.712 585.531)" fill="none" stroke="#000" stroke-miterlimit="10" stroke-width="3"/>
          <path id="Tracé_2303" data-name="Tracé 2303" d="M204.62,29.526a66.008,66.008,0,0,0-11.9-24.59c-5.053.9-9.316.278-14.3,1.867-4.716,1.521-9.685,2.061-14.565,2.874-15.6,2.571-30.057.725-45.869-1.241C101.958,6.432,86.193,3.72,70.111,2.214c-4.754-.451-7.976.529-12.246,1.328-3.876.737-8.779.28-12.82.423C40.158,4.137-6.124-7.938.682,9.233c1.951,4.9,6.257,6.647,10.532,8.633,7.861,3.639,15.83,7.242,23.829,10.5C51.456,35.029,68.573,39.8,84.887,46.891c17.78,7.723,34.814,16.861,51.79,26.44,6.487,3.66,12.955,7.149,17.94,12.811,3.3,3.737,8.465,10.822,13.727,10.966" transform="translate(384.493 768.787)" fill="none" stroke="#000" stroke-miterlimit="10" stroke-width="3"/>
          <path id="Tracé_2304" data-name="Tracé 2304" d="M0,0C17.758,15.937,33.2,30.692,53.355,42.145,63.263,47.772,71.965,55.3,82.334,60.29c15.111,7.289,30.2,14.45,45.037,22.345,14.057,7.481,29.229,12.766,43.32,20.341,10.727,5.756,22.279,8.4,33.466,12.84a257.209,257.209,0,0,1,30.292,14.377c7.695,4.291,14.994,13.288,23.558,15.093,8.723,1.838,15.984,3.78,24.148,7.9,13.039,6.584,26.84,10.931,40.133,16.756,4.779,2.088,9.635,4.047,14.441,6.336,7.934,3.789,15.8,8.6,23.371,13.173,9.159,5.546,19.115,9.48,28.24,15.01,10.838,6.571,22.595,10.813,33.342,17.512,11.026,6.861,21.586,14.555,32.067,22.3,6.322,4.668,12.643,9.807,19.355,13.816,8.289,4.943,17.1,9.053,25.025,14.681" transform="translate(29.946 639.496)" fill="none" stroke="#000" stroke-miterlimit="10" stroke-width="3"/>
          <path id="Tracé_2305" data-name="Tracé 2305" d="M0,0C7.98,5.591,23.454,14.575,31.243,23.031c2.038,2.2,3.583,4.556,5.925,6.47,5.195,4.27,12.175,5.98,18.091,8.848A198.851,198.851,0,0,1,76.5,50.244c6.212,4.012,12.972,6.3,19.526,9.557,11.247,5.594,19.9,14.846,30.934,20.912,16.733,9.214,33.893,17.319,51.038,25.7,15.734,7.688,32.067,13.405,47.979,20.708,13.114,6.013,26.849,10.15,40.026,16.057,11.441,5.114,24.943,9.808,35.059,17.678a55.244,55.244,0,0,1,11.715,13.314c1.065,1.6,2.7,1.973,1.975,4-.6,1.684-4.125,3.136-5.606,3.727-5.72,2.314-13.012,2.034-18.944.143-10.734-3.4-21.426-7.062-32.126-10.579-5.958-1.957-11.966-3.558-17.953-5.563-5.032-1.687-10.21-2.657-15.192-4.409-4.927-1.737-9.9-3.712-15.008-4.692-10.506-2.017-20.073-6.118-30.235-9.433-16.238-5.285-32.125-11-48.473-15.722-11.7-3.391-24.153-4.329-36.047-6.574A314.86,314.86,0,0,0,53,120.471c-8.693-.423-17.89-.392-26.559-.108-6.357.211-16.362-1.387-21.843,1.315" transform="translate(7.689 674.453)" fill="none" stroke="#000" stroke-miterlimit="10" stroke-width="3"/>
          <path id="Tracé_2306" data-name="Tracé 2306" d="M3.1,0a112.151,112.151,0,0,1,15.62,5.426c3.378,1.507,6.82,2.8,10.185,4.355,6.969,3.225,14.067,6.18,21,9.475,10.546,5.029,20.346,12.011,30.4,18.095,8.8,5.315,18.13,10.84,25.17,18.706.968,1.088,3.028,3.833,1.807,5.117-.737.785-2.07.444-3.007.357-1.752-.158-3.45-.329-5.2-.594-5.133-.767-10.2-1.477-15.3-2.629-4.627-1.043-9.152-2.549-13.741-3.818-9.219-2.548-18.5-5.089-27.832-7.006-7.118-1.462-14.256-2.6-21.369-3.987-2.63-.512-5.45-.351-8.139-.86a55.945,55.945,0,0,0-8.057-.5C3.014,42.065,1.528,41.4,0,41.191" transform="translate(0 714.31)" fill="none" stroke="#000" stroke-miterlimit="10" stroke-width="3"/>
          <path id="Tracé_2307" data-name="Tracé 2307" d="M0,0C24.032,10.544,48.038,22.792,73.838,26.64c15.568,2.318,31.087,5.737,46.572,8.728,33.58,6.487,67.235,12.915,100.71,20.089,22.863,4.9,45.477,8.8,68.622,9.434,12.491.337,23.559-.213,36.05,2.528,8.6,1.882,17.333,2.812,25.913,4.815A416.952,416.952,0,0,1,401.191,86.7c5.687,2.117,11.9,3.938,17.354,6.771,6.975,3.627,13.2,8.922,20.021,12.888,10.475,6.089,20.271,14.46,30.94,19.867,3.441,1.747,6.856,3.458,10.252,5.37,4.414,2.488,12.308,4.923,15.57,9.015" transform="translate(12.038 826.273)" fill="none" stroke="#000" stroke-miterlimit="10" stroke-width="3"/>
        </g>
      </g>
    </g>
  </g>
</svg>
